  0
SECTION
  2
HEADER
  9
$ACADVER
  1
AC1015
  9
$ACADMAINTVER
 70
     6
  9
$DWGCODEPAGE
  3
ANSI_1252
  9
$INSBASE
 10
0.0
 20
0.0
 30
0.0
  9
$EXTMIN
 10
0.0
 20
0.0
 30
0.0
  9
$EXTMAX
 10
210.0
 20
297.0
 30
0.0
  9
$LIMMIN
 10
0.0
 20
0.0
  9
$LIMMAX
 10
210.0
 20
297.0
  9
$ORTHOMODE
 70
     0
  9
$REGENMODE
 70
     1
  9
$FILLMODE
 70
     1
  9
$QTEXTMODE
 70
     0
  9
$MIRRTEXT
 70
     1
  9
$LTSCALE
 40
1.0
  9
$ATTMODE
 70
     1
  9
$TEXTSIZE
 40
3.5
  9
$TRACEWID
 40
1.0
  9
$TEXTSTYLE
  7
Standard
  9
$CLAYER
  8
0
  9
$CELTYPE
  6
ByLayer
  9
$CECOLOR
 62
   256
  9
$CELTSCALE
 40
1.0
  9
$DISPSILH
 70
     0
  9
$DIMSCALE
 40
1.0
  9
$DIMASZ
 40
3.302
  9
$DIMEXO
 40
1.0
  9
$DIMDLI
 40
3.75
  9
$DIMRND
 40
0.0
  9
$DIMDLE
 40
0.0
  9
$DIMEXE
 40
1.0
  9
$DIMTP
 40
0.0
  9
$DIMTM
 40
0.0
  9
$DIMTXT
 40
3.5
  9
$DIMCEN
 40
2.5
  9
$DIMTSZ
 40
0.0
  9
$DIMTOL
 70
     0
  9
$DIMLIM
 70
     0
  9
$DIMTIH
 70
     1
  9
$DIMTOH
 70
     1
  9
$DIMSE1
 70
     0
  9
$DIMSE2
 70
     0
  9
$DIMTAD
 70
     1
  9
$DIMZIN
 70
     1
  9
$DIMBLK
  1

  9
$DIMASO
 70
     1
  9
$DIMSHO
 70
     1
  9
$DIMPOST
  1

  9
$DIMAPOST
  1

  9
$DIMALT
 70
     0
  9
$DIMALTD
 70
     3
  9
$DIMALTF
 40
0.0393700787
  9
$DIMLFAC
 40
1.0
  9
$DIMTOFL
 70
     1
  9
$DIMTVP
 40
0.0
  9
$DIMTIX
 70
     0
  9
$DIMSOXD
 70
     0
  9
$DIMSAH
 70
     0
  9
$DIMBLK1
  1

  9
$DIMBLK2
  1

  9
$DIMSTYLE
  2
ISO-25
  9
$DIMCLRD
 70
     0
  9
$DIMCLRE
 70
     0
  9
$DIMCLRT
 70
     0
  9
$DIMTFAC
 40
1.0
  9
$DIMGAP
 40
1.524
  9
$DIMJUST
 70
     0
  9
$DIMSD1
 70
     0
  9
$DIMSD2
 70
     0
  9
$DIMTOLJ
 70
     0
  9
$DIMTZIN
 70
     1
  9
$DIMALTZ
 70
     0
  9
$DIMALTTZ
 70
     0
  9
$DIMUPT
 70
     0
  9
$DIMDEC
 70
     2
  9
$DIMTDEC
 70
     2
  9
$DIMALTU
 70
     2
  9
$DIMALTTD
 70
     3
  9
$DIMTXSTY
  7
Standard
  9
$DIMAUNIT
 70
     0
  9
$DIMADEC
 70
     2
  9
$DIMALTRND
 40
0.0
  9
$DIMAZIN
 70
     0
  9
$DIMDSEP
 70
    44
  9
$DIMATFIT
 70
     3
  9
$DIMFRAC
 70
     0
  9
$DIMLDRBLK
  1

  9
$DIMLUNIT
 70
     2
  9
$DIMLWD
 70
    -2
  9
$DIMLWE
 70
    -2
  9
$DIMTMOVE
 70
     0
  9
$LUNITS
 70
     2
  9
$LUPREC
 70
     2
  9
$SKETCHINC
 40
1.0
  9
$FILLETRAD
 40
0.0
  9
$AUNITS
 70
     0
  9
$AUPREC
 70
     2
  9
$MENU
  1
.
  9
$ELEVATION
 40
0.0
  9
$PELEVATION
 40
0.0
  9
$THICKNESS
 40
0.0
  9
$LIMCHECK
 70
     0
  9
$CHAMFERA
 40
0.0
  9
$CHAMFERB
 40
0.0
  9
$CHAMFERC
 40
0.0
  9
$CHAMFERD
 40
0.0
  9
$SKPOLY
 70
     0
  9
$TDCREATE
 40
2461165.488522836
  9
$TDUCREATE
 40
2461165.196856169
  9
$TDUPDATE
 40
2461165.488522952
  9
$TDUUPDATE
 40
2461165.196856285
  9
$TDINDWG
 40
0.0000000116
  9
$TDUSRTIMER
 40
0.0000000116
  9
$USRTIMER
 70
     1
  9
$ANGBASE
 50
0.0
  9
$ANGDIR
 70
     0
  9
$PDMODE
 70
     0
  9
$PDSIZE
 40
-1.0
  9
$PLINEWID
 40
0.0
  9
$SPLFRAME
 70
     0
  9
$SPLINETYPE
 70
     6
  9
$SPLINESEGS
 70
     8
  9
$HANDSEED
  5
D3
  9
$SURFTAB1
 70
     6
  9
$SURFTAB2
 70
     6
  9
$SURFTYPE
 70
     6
  9
$SURFU
 70
     6
  9
$SURFV
 70
     6
  9
$UCSBASE
  2

  9
$UCSNAME
  2

  9
$UCSORG
 10
0.0
 20
0.0
 30
0.0
  9
$UCSXDIR
 10
1.0
 20
0.0
 30
0.0
  9
$UCSYDIR
 10
0.0
 20
1.0
 30
0.0
  9
$UCSORTHOREF
  2

  9
$UCSORTHOVIEW
 70
     0
  9
$UCSORGTOP
 10
0.0
 20
0.0
 30
0.0
  9
$UCSORGBOTTOM
 10
0.0
 20
0.0
 30
0.0
  9
$UCSORGLEFT
 10
0.0
 20
0.0
 30
0.0
  9
$UCSORGRIGHT
 10
0.0
 20
0.0
 30
0.0
  9
$UCSORGFRONT
 10
0.0
 20
0.0
 30
0.0
  9
$UCSORGBACK
 10
0.0
 20
0.0
 30
0.0
  9
$PUCSBASE
  2

  9
$PUCSNAME
  2

  9
$PUCSORG
 10
0.0
 20
0.0
 30
0.0
  9
$PUCSXDIR
 10
1.0
 20
0.0
 30
0.0
  9
$PUCSYDIR
 10
0.0
 20
1.0
 30
0.0
  9
$PUCSORTHOREF
  2

  9
$PUCSORTHOVIEW
 70
     0
  9
$PUCSORGTOP
 10
0.0
 20
0.0
 30
0.0
  9
$PUCSORGBOTTOM
 10
0.0
 20
0.0
 30
0.0
  9
$PUCSORGLEFT
 10
0.0
 20
0.0
 30
0.0
  9
$PUCSORGRIGHT
 10
0.0
 20
0.0
 30
0.0
  9
$PUCSORGFRONT
 10
0.0
 20
0.0
 30
0.0
  9
$PUCSORGBACK
 10
0.0
 20
0.0
 30
0.0
  9
$USERI1
 70
     0
  9
$USERI2
 70
     0
  9
$USERI3
 70
     0
  9
$USERI4
 70
     0
  9
$USERI5
 70
     0
  9
$USERR1
 40
0.0
  9
$USERR2
 40
0.0
  9
$USERR3
 40
0.0
  9
$USERR4
 40
0.0
  9
$USERR5
 40
0.0
  9
$WORLDVIEW
 70
     1
  9
$SHADEDGE
 70
     3
  9
$SHADEDIF
 70
    70
  9
$TILEMODE
 70
     1
  9
$MAXACTVP
 70
    64
  9
$PINSBASE
 10
0.0
 20
0.0
 30
0.0
  9
$PLIMCHECK
 70
     0
  9
$PEXTMIN
 10
1.0000000000E+20
 20
1.0000000000E+20
 30
1.0000000000E+20
  9
$PEXTMAX
 10
-1.0000000000E+20
 20
-1.0000000000E+20
 30
-1.0000000000E+20
  9
$PLIMMIN
 10
0.0
 20
0.0
  9
$PLIMMAX
 10
420.0
 20
297.0
  9
$UNITMODE
 70
     0
  9
$VISRETAIN
 70
     1
  9
$PLINEGEN
 70
     0
  9
$PSLTSCALE
 70
     1
  9
$TREEDEPTH
 70
  3020
  9
$CMLSTYLE
  2
Standard
  9
$CMLJUST
 70
     0
  9
$CMLSCALE
 40
20.0
  9
$PROXYGRAPHICS
 70
     1
  9
$MEASUREMENT
 70
     1
  9
$CELWEIGHT
370
    -1
  9
$ENDCAPS
280
     0
  9
$JOINSTYLE
280
     0
  9
$LWDISPLAY
290
     1
  9
$INSUNITS
 70
     4
  9
$HYPERLINKBASE
  1

  9
$STYLESHEET
  1

  9
$XEDIT
290
     1
  9
$CEPSNTYPE
380
     0
  9
$PSTYLEMODE
290
     1
  9
$FINGERPRINTGUID
  2
{846f601a-51ad-47e8-a419-e20a7cd1ee5c}
  9
$VERSIONGUID
  2
{FAEB1C32-E019-11D5-929B-00C0DF256EC4}
  9
$EXTNAMES
290
     1
  9
$PSVPSCALE
 40
0.0
  9
$OLESTARTUP
290
     0
  0
ENDSEC
  0
SECTION
  2
CLASSES
  0
CLASS
  1
ACDBDICTIONARYWDFLT
  2
AcDbDictionaryWithDefault
  3
ObjectDBX Classes
 90
        0
280
     0
281
     0
  0
CLASS
  1
VISUALSTYLE
  2
AcDbVisualStyle
  3
ObjectDBX Classes
 90
     4095
280
     0
281
     0
  0
CLASS
  1
MATERIAL
  2
AcDbMaterial
  3
ObjectDBX Classes
 90
     1153
280
     0
281
     0
  0
CLASS
  1
SCALE
  2
AcDbScale
  3
ObjectDBX Classes
 90
     1153
280
     0
281
     0
  0
CLASS
  1
TABLESTYLE
  2
AcDbTableStyle
  3
ObjectDBX Classes
 90
     4095
280
     0
281
     0
  0
CLASS
  1
MLEADERSTYLE
  2
AcDbMLeaderStyle
  3
ACDB_MLEADERSTYLE_CLASS
 90
     4095
280
     0
281
     0
  0
CLASS
  1
SUN
  2
AcDbSun
  3
SCENEOE
 90
     1153
280
     0
281
     0
  0
CLASS
  1
ACDBPLACEHOLDER
  2
AcDbPlaceHolder
  3
ObjectDBX Classes
 90
        0
280
     0
281
     0
  0
CLASS
  1
LAYOUT
  2
AcDbLayout
  3
ObjectDBX Classes
 90
        0
280
     0
281
     0
  0
ENDSEC
  0
SECTION
  2
TABLES
  0
TABLE
  2
VPORT
  5
8
330
0
100
AcDbSymbolTable
 70
     1
  0
VPORT
  5
29
330
8
100
AcDbSymbolTableRecord
100
AcDbViewportTableRecord
  2
*Active
 70
     0
 10
0.0
 20
0.0
 11
1.0
 21
1.0
 12
105.0
 22
148.5
 13
0.0
 23
0.0
 14
10.0
 24
10.0
 15
10.0
 25
10.0
 16
0.0
 26
0.0
 36
1.0
 17
0.0
 27
0.0
 37
0.0
 40
297.0
 41
0.7070707071
 42
50.0
 43
0.0
 44
0.0
 50
0.0
 51
0.0
 71
     0
 72
  2000
 73
     1
 74
     3
 75
     0
 76
     0
 77
     0
 78
     0
281
     0
 65
     1
110
0.0
120
0.0
130
0.0
111
1.0
121
0.0
131
0.0
112
0.0
122
1.0
132
0.0
 79
     0
146
0.0
  0
ENDTAB
  0
TABLE
  2
LTYPE
  5
5
330
0
100
AcDbSymbolTable
 70
     6
  0
LTYPE
  5
14
330
5
100
AcDbSymbolTableRecord
100
AcDbLinetypeTableRecord
  2
ByBlock
 70
     0
  3

 72
    65
 73
     0
 40
0.0
  0
LTYPE
  5
15
330
5
100
AcDbSymbolTableRecord
100
AcDbLinetypeTableRecord
  2
ByLayer
 70
     0
  3

 72
    65
 73
     0
 40
0.0
  0
LTYPE
  5
16
330
5
100
AcDbSymbolTableRecord
100
AcDbLinetypeTableRecord
  2
Continuous
 70
     0
  3
Solid line
 72
    65
 73
     0
 40
0.0
  0
LTYPE
  5
5E
330
5
100
AcDbSymbolTableRecord
100
AcDbLinetypeTableRecord
  2
HIDDEN
 70
     0
  3
Hidden __ __ __ __ __ __ __ __ __ __ __ __ __ __
 72
    65
 73
     2
 40
1.905
 49
1.27
 74
     0
 49
-0.635
 74
     0
  0
LTYPE
  5
5F
330
5
100
AcDbSymbolTableRecord
100
AcDbLinetypeTableRecord
  2
PHANTOM
 70
     0
  3
Phantom ______  __  __  ______  __  __  ______
 72
    65
 73
     6
 40
12.7
 49
6.35
 74
     0
 49
-1.27
 74
     0
 49
1.27
 74
     0
 49
-1.27
 74
     0
 49
1.27
 74
     0
 49
-1.27
 74
     0
  0
LTYPE
  5
60
330
5
100
AcDbSymbolTableRecord
100
AcDbLinetypeTableRecord
  2
CENTER
 70
     0
  3
Center ____ _ ____ _ ____ _ ____ _ ____ _ ____
 72
    65
 73
     4
 40
10.16
 49
6.35
 74
     0
 49
-1.27
 74
     0
 49
1.27
 74
     0
 49
-1.27
 74
     0
  0
LTYPE
  5
61
330
5
100
AcDbSymbolTableRecord
100
AcDbLinetypeTableRecord
  2
CENTERX2
 70
     0
  3
Center (2x) ________  __  ________  __  _____
 72
    65
 73
     4
 40
20.32
 49
12.7
 74
     0
 49
-2.54
 74
     0
 49
2.54
 74
     0
 49
-2.54
 74
     0
  0
LTYPE
  5
62
330
5
100
AcDbSymbolTableRecord
100
AcDbLinetypeTableRecord
  2
DOT2
 70
     0
  3
Dot (.5x) ........................................
 72
    65
 73
     2
 40
0.635
 49
0.0
 74
     0
 49
-0.635
 74
     0
  0
ENDTAB
  0
TABLE
  2
LAYER
  5
2
330
0
100
AcDbSymbolTable
 70
     2
  0
LAYER
  5
10
330
2
100
AcDbSymbolTableRecord
100
AcDbLayerTableRecord
  2
0
 70
     0
 62
     7
  6
Continuous
370
    -3
390
F
  0
LAYER
  5
63
330
2
100
AcDbSymbolTableRecord
100
AcDbLayerTableRecord
  2
FORMAT
 70
     0
 62
     7
  6
Continuous
370
    -3
390
F
  0
ENDTAB
  0
TABLE
  2
STYLE
  5
3
330
0
100
AcDbSymbolTable
 70
     1
  0
STYLE
  5
11
330
3
100
AcDbSymbolTableRecord
100
AcDbTextStyleTableRecord
  2
Standard
 70
     0
 40
0.0
 41
1.0
 50
0.0
 71
     0
 42
3.5
  3
txt
  4

  0
ENDTAB
  0
TABLE
  2
VIEW
  5
6
330
0
100
AcDbSymbolTable
 70
     0
  0
ENDTAB
  0
TABLE
  2
UCS
  5
7
330
0
100
AcDbSymbolTable
 70
     0
  0
ENDTAB
  0
TABLE
  2
APPID
  5
9
330
0
100
AcDbSymbolTable
 70
     1
  0
APPID
  5
12
330
9
100
AcDbSymbolTableRecord
100
AcDbRegAppTableRecord
  2
ACAD
 70
     0
  0
ENDTAB
  0
TABLE
  2
DIMSTYLE
  5
A
330
0
100
AcDbSymbolTable
 70
     1
100
AcDbDimStyleTable
  0
DIMSTYLE
105
27
330
A
100
AcDbSymbolTableRecord
100
AcDbDimStyleTableRecord
  2
ISO-25
 70
     0
 41
2.5
 42
0.625
 43
3.75
 44
1.25
 73
     0
 74
     0
 77
     1
 78
     8
140
2.5
141
2.5
143
0.0393700787
147
0.625
171
     3
172
     1
178
     0
271
     2
272
     2
274
     3
278
    44
283
     0
284
     8
340
11
  0
ENDTAB
  0
TABLE
  2
BLOCK_RECORD
  5
1
330
0
100
AcDbSymbolTable
 70
     1
  0
BLOCK_RECORD
  5
1F
330
1
100
AcDbSymbolTableRecord
100
AcDbBlockTableRecord
  2
*Model_Space
340
22
  0
BLOCK_RECORD
  5
1B
330
1
100
AcDbSymbolTableRecord
100
AcDbBlockTableRecord
  2
*Paper_Space
340
1E
  0
BLOCK_RECORD
  5
23
330
1
100
AcDbSymbolTableRecord
100
AcDbBlockTableRecord
  2
*Paper_Space0
340
26
  0
ENDTAB
  0
ENDSEC
  0
SECTION
  2
BLOCKS
  0
BLOCK
  5
20
330
1F
100
AcDbEntity
  8
0
100
AcDbBlockBegin
  2
*Model_Space
 70
     0
 10
0.0
 20
0.0
 30
0.0
  3
*Model_Space
  1

  0
ENDBLK
  5
21
330
1F
100
AcDbEntity
  8
0
100
AcDbBlockEnd
  0
BLOCK
  5
1C
330
1B
100
AcDbEntity
 67
     1
  8
0
100
AcDbBlockBegin
  2
*Paper_Space
 70
     0
 10
0.0
 20
0.0
 30
0.0
  3
*Paper_Space
  1

  0
ENDBLK
  5
1D
330
1B
100
AcDbEntity
 67
     1
  8
0
100
AcDbBlockEnd
  0
BLOCK
  5
24
330
23
100
AcDbEntity
  8
0
100
AcDbBlockBegin
  2
*Paper_Space0
 70
     0
 10
0.0
 20
0.0
 30
0.0
  3
*Paper_Space0
  1

  0
ENDBLK
  5
25
330
23
100
AcDbEntity
  8
0
100
AcDbBlockEnd
  0
ENDSEC
  0
SECTION
  2
ENTITIES
  0
SPLINE
  5
64
330
1F
100
AcDbEntity
  8
0
  6
Continuous
 62
     7
370
    25
100
AcDbSpline
210
0.0
220
0.0
230
1.0
 70
     8
 71
     3
 72
    23
 73
    19
 74
     0
 42
0.00000001
 43
0.00000001
 40
0.0
 40
0.0
 40
0.0
 40
0.0
 40
0.0645357823400678
 40
0.1269776870899244
 40
0.1881749824893633
 40
0.2479152289930426
 40
0.3068664971608869
 40
0.3658720611127769
 40
0.425069461198792
 40
0.4854323190035242
 40
0.5457421029831662
 40
0.6055865678677805
 40
0.6660954962402051
 40
0.7275242902852634
 40
0.7906759806966606
 40
0.8571031425864504
 40
0.926717607816183
 40
1.0
 40
1.0
 40
1.0
 40
1.0
 10
114.9332461520706
 20
245.615104901035
 30
0.0
 10
114.9347813944289
 20
245.5425736280098
 30
0.0
 10
114.9378020678709
 20
245.3998643749961
 30
0.0
 10
114.9641237023835
 20
245.1897876211364
 30
0.0
 10
115.0049065163741
 20
244.9875342076579
 30
0.0
 10
115.066619769415
 20
244.7947803957665
 30
0.0
 10
115.141606871339
 20
244.6094420929983
 30
0.0
 10
115.2368148242743
 20
244.4342893162956
 30
0.0
 10
115.3462612100682
 20
244.2658587254336
 30
0.0
 10
115.4734652006086
 20
244.1084286746148
 30
0.0
 10
115.6155449113577
 20
243.9630785134165
 30
0.0
 10
115.7758354488821
 20
243.8376789108696
 30
0.0
 10
115.9502582742784
 20
243.730602869871
 30
0.0
 10
116.1395625110103
 20
243.6434713900244
 30
0.0
 10
116.3435921842135
 20
243.5754654516326
 30
0.0
 10
116.5628719634443
 20
243.5292539896653
 30
0.0
 10
116.7964369650918
 20
243.4986315543449
 30
0.0
 10
116.9570487906057
 20
243.4952463818839
 30
0.0
 10
117.0394160238655
 20
243.4935103497529
 30
0.0
  0
SPLINE
  5
65
330
1F
100
AcDbEntity
  8
0
  6
Continuous
 62
     7
370
    25
100
AcDbSpline
210
0.0
220
0.0
230
1.0
 70
     8
 71
     3
 72
    23
 73
    19
 74
     0
 42
0.00000001
 43
0.00000001
 40
0.0
 40
0.0
 40
0.0
 40
0.0
 40
0.0646061268755474
 40
0.1275715959400615
 40
0.1888973373152754
 40
0.249744971592911
 40
0.3101481049687557
 40
0.3714610384615436
 40
0.4340645284260899
 40
0.4983698465843319
 40
0.5626950080589973
 40
0.6256105651780416
 40
0.6870290838247214
 40
0.7482819446692397
 40
0.8093212711759996
 40
0.8711817556266223
 40
0.9347678184151582
 40
0.9999999999999999
 40
0.9999999999999999
 40
0.9999999999999999
 40
0.9999999999999999
 10
117.0394160238655
 20
243.4935103497529
 30
0.0
 10
117.1358341320721
 20
243.4957884405541
 30
0.0
 10
117.3262218326867
 20
243.5002867705617
 30
0.0
 10
117.6058679833247
 20
243.5403520097976
 30
0.0
 10
117.8743155276449
 20
243.6068618810024
 30
0.0
 10
118.1315875099115
 20
243.6977484570953
 30
0.0
 10
118.3777668105832
 20
243.8153831256875
 30
0.0
 10
118.6128595351489
 20
243.9589537960598
 30
0.0
 10
118.8362590913413
 20
244.1298300470673
 30
0.0
 10
119.0461683863265
 20
244.3235423225572
 30
0.0
 10
119.2389951893658
 20
244.5349738676367
 30
0.0
 10
119.4075518203448
 20
244.7609382732511
 30
0.0
 10
119.5506967103156
 20
244.9984605549127
 30
0.0
 10
119.6673212404128
 20
245.2470213179632
 30
0.0
 10
119.7575576324342
 20
245.5070389431168
 30
0.0
 10
119.8218839137037
 20
245.7780565913035
 30
0.0
 10
119.8624775826171
 20
246.0602563292871
 30
0.0
 10
119.8669027370688
 20
246.2525201825266
 30
0.0
 10
119.869143587968
 20
246.3498805420606
 30
0.0
  0
SPLINE
  5
66
330
1F
100
AcDbEntity
  8
0
  6
Continuous
 62
     7
370
    25
100
AcDbSpline
210
0.0
220
0.0
230
1.0
 70
     8
 71
     3
 72
    23
 73
    19
 74
     0
 42
0.00000001
 43
0.00000001
 40
0.0
 40
0.0
 40
0.0
 40
0.0
 40
0.0705282618505582
 40
0.1382194779110858
 40
0.2026495017514987
 40
0.2652294730190329
 40
0.3263355071975006
 40
0.3866692558688453
 40
0.4463731469713889
 40
0.5068250538014357
 40
0.5669118933745011
 40
0.6264333776620348
 40
0.6853898489246024
 40
0.7449869287582851
 40
0.8054683390597311
 40
0.8679708858950658
 40
0.9323389102100266
 40
1.0
 40
1.0
 40
1.0
 40
1.0
 10
119.869143587968
 20
246.3498805420606
 30
0.0
 10
119.867850844252
 20
246.4299010856104
 30
0.0
 10
119.8653173582873
 20
246.5867232936362
 30
0.0
 10
119.8360648530915
 20
246.8150817576399
 30
0.0
 10
119.7916292722931
 20
247.0315262210382
 30
0.0
 10
119.7291646285695
 20
247.2359897850878
 30
0.0
 10
119.6450295334303
 20
247.4273221611382
 30
0.0
 10
119.5463244382847
 20
247.6078786275787
 30
0.0
 10
119.426784975029
 20
247.7745959951043
 30
0.0
 10
119.2913204356066
 20
247.9280254693541
 30
0.0
 10
119.1415530012168
 20
248.0674383334041
 30
0.0
 10
118.9781926149936
 20
248.1876412461761
 30
0.0
 10
118.8047915293268
 20
248.2920061156595
 30
0.0
 10
118.6183840736043
 20
248.373426820936
 30
0.0
 10
118.4223432656631
 20
248.440960114195
 30
0.0
 10
118.2143584216165
 20
248.4863631207234
 30
0.0
 10
117.9950488732063
 20
248.5131758639034
 30
0.0
 10
117.8453162929895
 20
248.5171266910999
 30
0.0
 10
117.7685826905321
 20
248.5191513753939
 30
0.0
  0
SPLINE
  5
67
330
1F
100
AcDbEntity
  8
0
  6
Continuous
 62
     7
370
    25
100
AcDbSpline
210
0.0
220
0.0
230
1.0
 70
     8
 71
     3
 72
    31
 73
    27
 74
     0
 42
0.00000001
 43
0.00000001
 40
0.0
 40
0.0
 40
0.0
 40
0.0
 40
0.0423149128714511
 40
0.0841851854120046
 40
0.125139894869603
 40
0.1659573943095665
 40
0.2062021556342936
 40
0.2467521913310632
 40
0.2871109522080633
 40
0.3281647343710328
 40
0.3689774942035225
 40
0.4099073980144805
 40
0.4507248974544452
 40
0.4918492997077353
 40
0.5334832769124197
 40
0.5757901886927782
 40
0.618749366947036
 40
0.6629656435277936
 40
0.7070592490032863
 40
0.7503526053367595
 40
0.7925771321834153
 40
0.8344901194898645
 40
0.8760543424114376
 40
0.9173664747235433
 40
0.958617688477094
 40
1.0
 40
1.0
 40
1.0
 40
1.0
 10
117.7685826905321
 20
248.5191513753939
 30
0.0
 10
117.7049686664715
 20
248.5182003574819
 30
0.0
 10
117.5784090673389
 20
248.5163083148469
 30
0.0
 10
117.3910860289373
 20
248.4972810370651
 30
0.0
 10
117.2075314670223
 20
248.467799880994
 30
0.0
 10
117.0285166188181
 20
248.4273976573747
 30
0.0
 10
116.8531826169169
 20
248.3752542106596
 30
0.0
 10
116.68272319448
 20
248.3108148218919
 30
0.0
 10
116.5158789268682
 20
248.2345533095226
 30
0.0
 10
116.3544892513425
 20
248.1465555906133
 30
0.0
 10
116.1980127668384
 20
248.0484259009492
 30
0.0
 10
116.0497169269812
 20
247.9389115841424
 30
0.0
 10
115.9085589410732
 20
247.8195803777523
 30
0.0
 10
115.7769147449273
 20
247.6883283917117
 30
0.0
 10
115.6518935096377
 20
247.5478525072861
 30
0.0
 10
115.5338452111643
 20
247.3978689905175
 30
0.0
 10
115.4242442319746
 20
247.2369170579184
 30
0.0
 10
115.3226030901092
 20
247.0676739687164
 30
0.0
 10
115.2323781348689
 20
246.8915277471368
 30
0.0
 10
115.1522383117425
 20
246.7138977469864
 30
0.0
 10
115.0840341268209
 20
246.5347586821075
 30
0.0
 10
115.0299441601537
 20
246.353623480482
 30
0.0
 10
114.985788727004
 20
246.1712182754733
 30
0.0
 10
114.9551709883913
 20
245.9870624817293
 30
0.0
 10
114.9361604405871
 20
245.8015417524865
 30
0.0
 10
114.9342186084792
 20
245.6773162126322
 30
0.0
 10
114.9332461520706
 20
245.615104901035
 30
0.0
  0
SPLINE
  5
68
330
1F
100
AcDbEntity
  8
0
  6
Continuous
 62
     7
370
    25
100
AcDbSpline
210
0.0
220
0.0
230
1.0
 70
     8
 71
     3
 72
    23
 73
    19
 74
     0
 42
0.00000001
 43
0.00000001
 40
0.0
 40
0.0
 40
0.0
 40
0.0
 40
0.0648392831322588
 40
0.1264229086091225
 40
0.184195116321726
 40
0.241540480823825
 40
0.2982279063031536
 40
0.3561234467995907
 40
0.4166294974013272
 40
0.481464706050713
 40
0.5188408291094705
 40
0.5637724457114105
 40
0.6172365331187027
 40
0.6777818662822248
 40
0.7462477616664613
 40
0.8226256646892716
 40
0.9076832069593829
 40
1.0
 40
1.0
 40
1.0
 40
1.0
 10
111.8819641007886
 20
247.5768436830862
 30
0.0
 10
111.8802626597598
 20
247.6185376220238
 30
0.0
 10
111.8769452090836
 20
247.699831997551
 30
0.0
 10
111.8537826098698
 20
247.8167131893611
 30
0.0
 10
111.8115938100462
 20
247.9227100679165
 30
0.0
 10
111.7560888633937
 20
248.0188337981851
 30
0.0
 10
111.6831437589942
 20
248.1027824541252
 30
0.0
 10
111.5950410925022
 20
248.1738400726766
 30
0.0
 10
111.4908609502203
 20
248.2301592906825
 30
0.0
 10
111.3917627261514
 20
248.2648725826317
 30
0.0
 10
111.2996893442481
 20
248.287029740026
 30
0.0
 10
111.2133123528562
 20
248.3001525295545
 30
0.0
 10
111.1119027611585
 20
248.3129683576938
 30
0.0
 10
110.9948827053738
 20
248.3220190253301
 30
0.0
 10
110.8631015458607
 20
248.3308245572226
 30
0.0
 10
110.7153369203275
 20
248.3361568433396
 30
0.0
 10
110.552178118475
 20
248.3385448138437
 30
0.0
 10
110.438121323501
 20
248.3392810251185
 30
0.0
 10
110.3787589725834
 20
248.3396641959067
 30
0.0
  0
LINE
  5
69
330
1F
100
AcDbEntity
  8
0
  6
Continuous
 62
     7
370
    25
100
AcDbLine
 10
110.3787589726
 20
248.3396641959
 30
0.0
 11
110.1375730751
 21
246.6345359908
 31
0.0
  0
SPLINE
  5
6A
330
1F
100
AcDbEntity
  8
0
  6
Continuous
 62
     7
370
    25
100
AcDbSpline
210
0.0
220
0.0
230
1.0
 70
     8
 71
     3
 72
    23
 73
    19
 74
     0
 42
0.00000001
 43
0.00000001
 40
0.0
 40
0.0
 40
0.0
 40
0.0
 40
0.1149228553707685
 40
0.2193790763260079
 40
0.3135612654407536
 40
0.3976156477123012
 40
0.4724011111393844
 40
0.5376626123282855
 40
0.594179024065405
 40
0.64232615625015
 40
0.6864607239650434
 40
0.7290610577549916
 40
0.7716659184387178
 40
0.8141937563943175
 40
0.8576723551817818
 40
0.9025608220063529
 40
0.9502531752497166
 40
1.0
 40
1.0
 40
1.0
 40
1.0
 10
110.1375730751475
 20
246.6345359907785
 30
0.0
 10
110.2240521466612
 20
246.6360127850608
 30
0.0
 10
110.3891341816401
 20
246.6388318741318
 30
0.0
 10
110.6249726363745
 20
246.6489998161181
 30
0.0
 10
110.8368994092044
 20
246.668613793584
 30
0.0
 10
111.025626557107
 20
246.6946994919699
 30
0.0
 10
111.1910907103089
 20
246.7277887879108
 30
0.0
 10
111.3339904374695
 20
246.7671273823847
 30
0.0
 10
111.4524121033233
 20
246.8160910934743
 30
0.0
 10
111.5504524201376
 20
246.8713110846582
 30
0.0
 10
111.6282539992474
 20
246.9370546850668
 30
0.0
 10
111.6972091477703
 20
247.0059734075658
 30
0.0
 10
111.7548665124493
 20
247.0834022391251
 30
0.0
 10
111.8011966979193
 20
247.1686455452671
 30
0.0
 10
111.8382503763274
 20
247.2602290240218
 30
0.0
 10
111.8630203903748
 20
247.3598402545249
 30
0.0
 10
111.8786025836515
 20
247.4660429137252
 30
0.0
 10
111.8808279546823
 20
247.5393945618869
 30
0.0
 10
111.8819641007886
 20
247.5768436830862
 30
0.0
  0
SPLINE
  5
6B
330
1F
100
AcDbEntity
  8
0
  6
Continuous
 62
     7
370
    25
100
AcDbSpline
210
0.0
220
0.0
230
1.0
 70
     8
 71
     3
 72
    23
 73
    19
 74
     0
 42
0.00000001
 43
0.00000001
 40
0.0
 40
0.0
 40
0.0
 40
0.0
 40
0.0645357823400679
 40
0.1269776870899245
 40
0.1881749824893634
 40
0.2479152289930424
 40
0.3068664971608868
 40
0.3658720611127769
 40
0.425069461198792
 40
0.485432319003525
 40
0.5457421029831654
 40
0.6055865678677814
 40
0.6660954962402051
 40
0.7275242902852634
 40
0.7906759806966606
 40
0.8571031425864514
 40
0.9267176078161841
 40
1.0
 40
1.0
 40
1.0
 40
1.0
 10
92.67683589566035
 20
245.615104901035
 30
0.0
 10
92.67837113801863
 20
245.5425736280098
 30
0.0
 10
92.6813918114607
 20
245.3998643749961
 30
0.0
 10
92.70771344597321
 20
245.1897876211364
 30
0.0
 10
92.74849625996382
 20
244.9875342076579
 30
0.0
 10
92.81020951300472
 20
244.7947803957665
 30
0.0
 10
92.8851966149287
 20
244.6094420929983
 30
0.0
 10
92.98040456786407
 20
244.4342893162956
 30
0.0
 10
93.08985095365796
 20
244.2658587254336
 30
0.0
 10
93.2170549441983
 20
244.1084286746148
 30
0.0
 10
93.35913465494743
 20
243.9630785134165
 30
0.0
 10
93.51942519247184
 20
243.8376789108696
 30
0.0
 10
93.69384801786816
 20
243.730602869871
 30
0.0
 10
93.88315225460005
 20
243.6434713900244
 30
0.0
 10
94.08718192780321
 20
243.5754654516326
 30
0.0
 10
94.30646170703407
 20
243.5292539896653
 30
0.0
 10
94.5400267086815
 20
243.4986315543449
 30
0.0
 10
94.70063853419545
 20
243.4952463818839
 30
0.0
 10
94.78300576745522
 20
243.4935103497529
 30
0.0
  0
SPLINE
  5
6C
330
1F
100
AcDbEntity
  8
0
  6
Continuous
 62
     7
370
    25
100
AcDbSpline
210
0.0
220
0.0
230
1.0
 70
     8
 71
     3
 72
    23
 73
    19
 74
     0
 42
0.00000001
 43
0.00000001
 40
0.0
 40
0.0
 40
0.0
 40
0.0
 40
0.0646061268755466
 40
0.1275715959400608
 40
0.1888973373152762
 40
0.2497449715929119
 40
0.3101481049687559
 40
0.3714610384615438
 40
0.4340645284260896
 40
0.4983698465843321
 40
0.5626950080589981
 40
0.6256105651780414
 40
0.6870290838247213
 40
0.7482819446692396
 40
0.8093212711759995
 40
0.8711817556266221
 40
0.9347678184151583
 40
1.0
 40
1.0
 40
1.0
 40
1.0
 10
94.78300576745522
 20
243.4935103497529
 30
0.0
 10
94.8794238756619
 20
243.4957884405541
 30
0.0
 10
95.06981157627645
 20
243.5002867705617
 30
0.0
 10
95.34945772691444
 20
243.5403520097976
 30
0.0
 10
95.61790527123469
 20
243.6068618810024
 30
0.0
 10
95.87517725350118
 20
243.6977484570953
 30
0.0
 10
96.12135655417292
 20
243.8153831256875
 30
0.0
 10
96.3564492787386
 20
243.9589537960598
 30
0.0
 10
96.57984883493104
 20
244.1298300470673
 30
0.0
 10
96.78975812991627
 20
244.3235423225572
 30
0.0
 10
96.98258493295559
 20
244.5349738676367
 30
0.0
 10
97.15114156393457
 20
244.7609382732511
 30
0.0
 10
97.29428645390531
 20
244.9984605549127
 30
0.0
 10
97.4109109840026
 20
245.2470213179632
 30
0.0
 10
97.501147376024
 20
245.5070389431168
 30
0.0
 10
97.56547365729347
 20
245.7780565913035
 30
0.0
 10
97.60606732620685
 20
246.0602563292871
 30
0.0
 10
97.61049248065859
 20
246.2525201825266
 30
0.0
 10
97.61273333155779
 20
246.3498805420606
 30
0.0
  0
SPLINE
  5
6D
330
1F
100
AcDbEntity
  8
0
  6
Continuous
 62
     7
370
    25
100
AcDbSpline
210
0.0
220
0.0
230
1.0
 70
     8
 71
     3
 72
    23
 73
    19
 74
     0
 42
0.00000001
 43
0.00000001
 40
0.0
 40
0.0
 40
0.0
 40
0.0
 40
0.070528261850558
 40
0.1382194779110857
 40
0.2026495017514983
 40
0.2652294730190331
 40
0.3263355071975003
 40
0.3866692558688454
 40
0.4463731469713879
 40
0.5068250538014359
 40
0.5669118933745005
 40
0.6264333776620341
 40
0.6853898489246025
 40
0.7449869287582852
 40
0.8054683390597303
 40
0.8679708858950648
 40
0.9323389102100266
 40
1.0
 40
1.0
 40
1.0
 40
1.0
 10
97.61273333155779
 20
246.3498805420606
 30
0.0
 10
97.61144058784171
 20
246.4299010856104
 30
0.0
 10
97.60890710187705
 20
246.5867232936362
 30
0.0
 10
97.5796545966813
 20
246.8150817576399
 30
0.0
 10
97.53521901588284
 20
247.0315262210382
 30
0.0
 10
97.4727543721592
 20
247.2359897850878
 30
0.0
 10
97.38861927702004
 20
247.4273221611382
 30
0.0
 10
97.28991418187438
 20
247.6078786275787
 30
0.0
 10
97.17037471861875
 20
247.7745959951043
 30
0.0
 10
97.03491017919629
 20
247.9280254693541
 30
0.0
 10
96.88514274480656
 20
248.0674383334041
 30
0.0
 10
96.72178235858334
 20
248.1876412461761
 30
0.0
 10
96.5483812729166
 20
248.2920061156595
 30
0.0
 10
96.36197381719406
 20
248.373426820936
 30
0.0
 10
96.16593300925287
 20
248.440960114195
 30
0.0
 10
95.9579481652062
 20
248.4863631207234
 30
0.0
 10
95.73863861679602
 20
248.5131758639034
 30
0.0
 10
95.58890603657929
 20
248.5171266910999
 30
0.0
 10
95.51217243412188
 20
248.5191513753939
 30
0.0
  0
SPLINE
  5
6E
330
1F
100
AcDbEntity
  8
0
  6
Continuous
 62
     7
370
    25
100
AcDbSpline
210
0.0
220
0.0
230
1.0
 70
     8
 71
     3
 72
    31
 73
    27
 74
     0
 42
0.00000001
 43
0.00000001
 40
0.0
 40
0.0
 40
0.0
 40
0.0
 40
0.0423149128714496
 40
0.0841851854120031
 40
0.1251398948696016
 40
0.1659573943095666
 40
0.206202155634293
 40
0.2467521913310634
 40
0.2871109522080635
 40
0.3281647343710331
 40
0.3689774942035222
 40
0.4099073980144796
 40
0.4507248974544443
 40
0.4918492997077356
 40
0.5334832769124195
 40
0.575790188692778
 40
0.6187493669470353
 40
0.6629656435277935
 40
0.7070592490032862
 40
0.7503526053367598
 40
0.7925771321834156
 40
0.8344901194898647
 40
0.8760543424114376
 40
0.9173664747235433
 40
0.958617688477094
 40
1.0
 40
1.0
 40
1.0
 40
1.0
 10
95.51217243412188
 20
248.5191513753939
 30
0.0
 10
95.4485584100613
 20
248.5182003574819
 30
0.0
 10
95.3219988109286
 20
248.5163083148469
 30
0.0
 10
95.13467577252702
 20
248.4972810370651
 30
0.0
 10
94.951121210612
 20
248.467799880994
 30
0.0
 10
94.77210636240781
 20
248.4273976573747
 30
0.0
 10
94.59677236050659
 20
248.3752542106596
 30
0.0
 10
94.42631293806976
 20
248.3108148218919
 30
0.0
 10
94.25946867045798
 20
248.2345533095226
 30
0.0
 10
94.09807899493228
 20
248.1465555906133
 30
0.0
 10
93.94160251042813
 20
248.0484259009492
 30
0.0
 10
93.79330667057098
 20
247.9389115841424
 30
0.0
 10
93.65214868466296
 20
247.8195803777523
 30
0.0
 10
93.52050448851705
 20
247.6883283917117
 30
0.0
 10
93.39548325322743
 20
247.5478525072861
 30
0.0
 10
93.2774349547541
 20
247.3978689905175
 30
0.0
 10
93.16783397556435
 20
247.2369170579184
 30
0.0
 10
93.06619283369899
 20
247.0676739687164
 30
0.0
 10
92.97596787845863
 20
246.8915277471368
 30
0.0
 10
92.89582805533226
 20
246.7138977469864
 30
0.0
 10
92.82762387041066
 20
246.5347586821075
 30
0.0
 10
92.77353390374344
 20
246.353623480482
 30
0.0
 10
92.72937847059376
 20
246.1712182754733
 30
0.0
 10
92.69876073198105
 20
245.9870624817293
 30
0.0
 10
92.67975018417684
 20
245.8015417524865
 30
0.0
 10
92.67780835206891
 20
245.6773162126322
 30
0.0
 10
92.67683589566035
 20
245.615104901035
 30
0.0
  0
ARC
  5
6F
330
1F
100
AcDbEntity
  8
0
  6
Continuous
 62
     7
370
    25
100
AcDbCircle
 10
80.9476746611
 20
245.3207612096
 30
0.0
 40
10.0
100
AcDbArc
 50
180.0
 51
270.0
  0
ARC
  5
70
330
1F
100
AcDbEntity
  8
0
  6
Continuous
 62
     7
370
    25
100
AcDbCircle
 10
80.9476746611
 20
245.3207612096
 30
0.0
 40
10.0
100
AcDbArc
 50
90.0
 51
180.0
  0
LINE
  5
71
330
1F
100
AcDbEntity
  8
0
  6
Continuous
 62
     7
370
    25
100
AcDbLine
 10
130.9476746611
 20
255.3207612096
 30
0.0
 11
80.9476746611
 21
255.3207612096
 31
0.0
  0
ARC
  5
72
330
1F
100
AcDbEntity
  8
0
  6
Continuous
 62
     7
370
    25
100
AcDbCircle
 10
130.9476746611
 20
245.3207612096
 30
0.0
 40
10.00000000000003
100
AcDbArc
 50
0.0
 51
90.0
  0
ARC
  5
73
330
1F
100
AcDbEntity
  8
0
  6
Continuous
 62
     7
370
    25
100
AcDbCircle
 10
130.9476746611
 20
245.3207612096
 30
0.0
 40
10.00000000000003
100
AcDbArc
 50
270.0
 51
0.0
  0
LINE
  5
74
330
1F
100
AcDbEntity
  8
0
  6
Continuous
 62
     7
370
    25
100
AcDbLine
 10
80.9476746611
 20
235.3207612096
 30
0.0
 11
130.9476746611
 21
235.3207612096
 31
0.0
  0
LINE
  5
75
330
1F
100
AcDbEntity
  8
0
  6
Continuous
 62
     7
370
    25
100
AcDbLine
 10
79.72150737
 20
242.5063308626
 30
0.0
 11
77.7078855751
 21
245.7525247728
 31
0.0
  0
LINE
  5
76
330
1F
100
AcDbEntity
  8
0
  6
Continuous
 62
     7
370
    25
100
AcDbLine
 10
77.7078855751
 20
245.7525247728
 30
0.0
 11
77.2521564085
 21
242.5063308626
 31
0.0
  0
LINE
  5
77
330
1F
100
AcDbEntity
  8
0
  6
Continuous
 62
     7
370
    25
100
AcDbLine
 10
77.2521564085
 20
242.5063308626
 30
0.0
 11
79.72150737
 21
242.5063308626
 31
0.0
  0
LINE
  5
78
330
1F
100
AcDbEntity
  8
0
  6
Continuous
 62
     7
370
    25
100
AcDbLine
 10
76.9660987162
 20
249.5063308626
 30
0.0
 11
75.9845282034
 21
249.5063308626
 31
0.0
  0
LINE
  5
79
330
1F
100
AcDbEntity
  8
0
  6
Continuous
 62
     7
370
    25
100
AcDbLine
 10
75.9845282034
 20
249.5063308626
 30
0.0
 11
75.9845282034
 21
242.5063308626
 31
0.0
  0
LINE
  5
7A
330
1F
100
AcDbEntity
  8
0
  6
Continuous
 62
     7
370
    25
100
AcDbLine
 10
75.9845282034
 20
242.5063308626
 30
0.0
 11
76.9660987162
 21
249.5063308626
 31
0.0
  0
LINE
  5
7B
330
1F
100
AcDbEntity
  8
0
  6
Continuous
 62
     7
370
    25
100
AcDbLine
 10
77.8887749982
 20
247.0397843882
 30
0.0
 11
80.2459464726
 21
249.5063308626
 31
0.0
  0
LINE
  5
7C
330
1F
100
AcDbEntity
  8
0
  6
Continuous
 62
     7
370
    25
100
AcDbLine
 10
80.2459464726
 20
249.5063308626
 30
0.0
 11
78.2337269213
 21
249.5063308626
 31
0.0
  0
LINE
  5
7D
330
1F
100
AcDbEntity
  8
0
  6
Continuous
 62
     7
370
    25
100
AcDbLine
 10
78.2337269213
 20
249.5063308626
 30
0.0
 11
77.8887749982
 21
247.0397843882
 31
0.0
  0
LINE
  5
7E
330
1F
100
AcDbEntity
  8
0
  6
Continuous
 62
     7
370
    25
100
AcDbLine
 10
78.8549208316
 20
246.2685504139
 30
0.0
 11
81.1868519213
 21
242.5063308626
 31
0.0
  0
LINE
  5
7F
330
1F
100
AcDbEntity
  8
0
  6
Continuous
 62
     7
370
    25
100
AcDbLine
 10
81.1868519213
 20
242.5063308626
 30
0.0
 11
81.9076051264
 21
242.5063308626
 31
0.0
  0
LINE
  5
80
330
1F
100
AcDbEntity
  8
0
  6
Continuous
 62
     7
370
    25
100
AcDbLine
 10
81.9076051264
 20
242.5063308626
 30
0.0
 11
82.8891756393
 21
249.5063308626
 31
0.0
  0
LINE
  5
81
330
1F
100
AcDbEntity
  8
0
  6
Continuous
 62
     7
370
    25
100
AcDbLine
 10
82.8891756393
 20
249.5063308626
 30
0.0
 11
81.9524769213
 21
249.5063308626
 31
0.0
  0
LINE
  5
82
330
1F
100
AcDbEntity
  8
0
  6
Continuous
 62
     7
370
    25
100
AcDbLine
 10
81.9524769213
 20
249.5063308626
 30
0.0
 11
78.8549208316
 21
246.2685504139
 31
0.0
  0
LINE
  5
83
330
1F
100
AcDbEntity
  8
0
  6
Continuous
 62
     7
370
    25
100
AcDbLine
 10
86.5167798059
 20
248.3396641959
 30
0.0
 11
83.9969480751
 21
248.3396641959
 31
0.0
  0
LINE
  5
84
330
1F
100
AcDbEntity
  8
0
  6
Continuous
 62
     7
370
    25
100
AcDbLine
 10
83.9969480751
 20
248.3396641959
 30
0.0
 11
83.7711868572
 21
246.7242795805
 31
0.0
  0
LINE
  5
85
330
1F
100
AcDbEntity
  8
0
  6
Continuous
 62
     7
370
    25
100
AcDbLine
 10
83.7711868572
 20
246.7242795805
 30
0.0
 11
86.3134544854
 21
246.7242795805
 31
0.0
  0
LINE
  5
86
330
1F
100
AcDbEntity
  8
0
  6
Continuous
 62
     7
370
    25
100
AcDbLine
 10
86.3134544854
 20
246.7242795805
 30
0.0
 11
86.1648166649
 21
245.5576129139
 31
0.0
  0
LINE
  5
87
330
1F
100
AcDbEntity
  8
0
  6
Continuous
 62
     7
370
    25
100
AcDbLine
 10
86.1648166649
 20
245.5576129139
 30
0.0
 11
83.6057221136
 21
245.5576129139
 31
0.0
  0
LINE
  5
88
330
1F
100
AcDbEntity
  8
0
  6
Continuous
 62
     7
370
    25
100
AcDbLine
 10
83.6057221136
 20
245.5576129139
 30
0.0
 11
83.3406980751
 21
243.6729975292
 31
0.0
  0
LINE
  5
89
330
1F
100
AcDbEntity
  8
0
  6
Continuous
 62
     7
370
    25
100
AcDbLine
 10
83.3406980751
 20
243.6729975292
 30
0.0
 11
85.9292397418
 21
243.6729975292
 31
0.0
  0
LINE
  5
8A
330
1F
100
AcDbEntity
  8
0
  6
Continuous
 62
     7
370
    25
100
AcDbLine
 10
85.9292397418
 20
243.6729975292
 30
0.0
 11
85.7806019213
 21
242.5063308626
 31
0.0
  0
LINE
  5
8B
330
1F
100
AcDbEntity
  8
0
  6
Continuous
 62
     7
370
    25
100
AcDbLine
 10
85.7806019213
 20
242.5063308626
 30
0.0
 11
87.1127333316
 21
242.5063308626
 31
0.0
  0
LINE
  5
8C
330
1F
100
AcDbEntity
  8
0
  6
Continuous
 62
     7
370
    25
100
AcDbLine
 10
87.1127333316
 20
242.5063308626
 30
0.0
 11
88.0943038444
 21
249.5063308626
 31
0.0
  0
LINE
  5
8D
330
1F
100
AcDbEntity
  8
0
  6
Continuous
 62
     7
370
    25
100
AcDbLine
 10
88.0943038444
 20
249.5063308626
 30
0.0
 11
86.6640153828
 21
249.5063308626
 31
0.0
  0
LINE
  5
8E
330
1F
100
AcDbEntity
  8
0
  6
Continuous
 62
     7
370
    25
100
AcDbLine
 10
86.6640153828
 20
249.5063308626
 30
0.0
 11
86.5167798059
 21
248.3396641959
 31
0.0
  0
LINE
  5
8F
330
1F
100
AcDbEntity
  8
0
  6
Continuous
 62
     7
370
    25
100
AcDbLine
 10
99.1075249982
 20
242.5063308626
 30
0.0
 11
100.7537589726
 21
249.5063308626
 31
0.0
  0
LINE
  5
90
330
1F
100
AcDbEntity
  8
0
  6
Continuous
 62
     7
370
    25
100
AcDbLine
 10
100.7537589726
 20
249.5063308626
 30
0.0
 11
96.7147067058
 21
249.5063308626
 31
0.0
  0
SPLINE
  5
91
330
1F
100
AcDbEntity
  8
0
  6
Continuous
 62
     7
370
    25
100
AcDbSpline
210
0.0
220
0.0
230
1.0
 70
     8
 71
     3
 72
    20
 73
    16
 74
     0
 42
0.00000001
 43
0.00000001
 40
0.2274363714436275
 40
0.2274363714436275
 40
0.2274363714436275
 40
0.2274363714436275
 40
0.2571630509245212
 40
0.3178970042493234
 40
0.3785802245124621
 40
0.439872975788455
 40
0.5020382986730882
 40
0.564166740499703
 40
0.625133169700114
 40
0.6854903325724085
 40
0.7456043237748705
 40
0.8067109861278068
 40
0.8690368324300035
 40
0.9333061686937952
 40
1.0
 40
1.0
 40
1.0
 40
1.0
 10
96.71470670581306
 20
249.5063308625712
 30
0.0
 10
96.76392609281778
 20
249.4897397535533
 30
0.0
 10
96.91249963531658
 20
249.4356255541195
 30
0.0
 10
97.15389840752009
 20
249.3277462001657
 30
0.0
 10
97.43017058623087
 20
249.1668261233418
 30
0.0
 10
97.69022352146791
 20
248.9766992055221
 30
0.0
 10
97.93193977616
 20
248.7599416069901
 30
0.0
 10
98.15088868729751
 20
248.5211136719838
 30
0.0
 10
98.34505029356143
 20
248.265493248658
 30
0.0
 10
98.50629940527288
 20
247.9919176259946
 30
0.0
 10
98.63909246756278
 20
247.703433149936
 30
0.0
 10
98.74377254118356
 20
247.3997243884047
 30
0.0
 10
98.8151794072272
 20
247.0793318591068
 30
0.0
 10
98.86231360822488
 20
246.7443785063597
 30
0.0
 10
98.86683900214813
 20
246.5155112055097
 30
0.0
 10
98.86914358796804
 20
246.3989590677016
 30
0.0
  0
SPLINE
  5
92
330
1F
100
AcDbEntity
  8
0
  6
Continuous
 62
     7
370
    25
100
AcDbSpline
210
0.0
220
0.0
230
1.0
 70
     8
 71
     3
 72
    27
 73
    23
 74
     0
 42
0.00000001
 43
0.00000001
 40
0.0
 40
0.0
 40
0.0
 40
0.0
 40
0.04188799435379
 40
0.0833119746699246
 40
0.1244329539022863
 40
0.1656331425791665
 40
0.2067286292095885
 40
0.2482548009980927
 40
0.2904601562565908
 40
0.3330390661313619
 40
0.375567628195242
 40
0.4170635056946249
 40
0.4581839185964208
 40
0.4988051931211229
 40
0.5389634745241147
 40
0.5791420474049103
 40
0.6192585540651675
 40
0.6599354000341532
 40
0.7007653904355621
 40
0.741656933621265
 40
0.7828141418008109
 40
0.795465540479019
 40
0.795465540479019
 40
0.795465540479019
 40
0.795465540479019
 10
98.86914358796804
 20
246.3989590677016
 30
0.0
 10
98.86766765040144
 20
246.3082126344958
 30
0.0
 10
98.86473212495889
 20
246.1277250112218
 30
0.0
 10
98.83679921564197
 20
245.8593581731915
 30
0.0
 10
98.79328351804017
 20
245.5947998715174
 30
0.0
 10
98.73370017544838
 20
245.3339737494587
 30
0.0
 10
98.65394195432114
 20
245.0777163595771
 30
0.0
 10
98.55873615781594
 20
244.8245094021004
 30
0.0
 10
98.44515921593604
 20
244.5753888500198
 30
0.0
 10
98.3147222156312
 20
244.3322842879294
 30
0.0
 10
98.17183146937184
 20
244.0980592915642
 30
0.0
 10
98.01521446724074
 20
243.8765821888395
 30
0.0
 10
97.84696010315886
 20
243.6691674086117
 30
0.0
 10
97.6677141193534
 20
243.474998375551
 30
0.0
 10
97.47554101642066
 20
243.2966745061822
 30
0.0
 10
97.2741968955001
 20
243.1304600585331
 30
0.0
 10
97.05931999442954
 20
242.9801331263547
 30
0.0
 10
96.83432148265544
 20
242.8428218553703
 30
0.0
 10
96.59873111512213
 20
242.7207887279082
 30
0.0
 10
96.35414083224197
 20
242.6153145010758
 30
0.0
 10
96.16029134683723
 20
242.5478185405899
 30
0.0
 10
96.04873470597566
 20
242.5140268470406
 30
0.0
 10
96.02243298585125
 20
242.5063308625734
 30
0.0
  0
LINE
  5
93
330
1F
100
AcDbEntity
  8
0
  6
Continuous
 62
     7
370
    25
100
AcDbLine
 10
96.0224329859
 20
242.5063308626
 30
0.0
 11
99.1075249982
 21
242.5063308626
 31
0.0
  0
SPLINE
  5
94
330
1F
100
AcDbEntity
  8
0
  6
Continuous
 62
     7
370
    25
100
AcDbSpline
210
0.0
220
0.0
230
1.0
 70
     8
 71
     3
 72
    15
 73
    11
 74
     0
 42
0.00000001
 43
0.00000001
 40
0.0
 40
0.0
 40
0.0
 40
0.0
 40
0.1307175632370422
 40
0.2573898700305134
 40
0.3818346537331831
 40
0.5044481655778541
 40
0.6261019029577136
 40
0.7485072622561804
 40
0.8727833722169696
 40
1.0
 40
1.0
 40
1.0
 40
1.0
 10
91.4204256392501
 20
245.5463949651375
 30
0.0
 10
91.42348424222675
 20
245.6811872179076
 30
0.0
 10
91.42950679499732
 20
245.946600369457
 30
0.0
 10
91.48244836138663
 20
246.3372855644797
 30
0.0
 10
91.56337096685304
 20
246.7144024517276
 30
0.0
 10
91.68260659031577
 20
247.0759472503019
 30
0.0
 10
91.83297927708101
 20
247.4232918781378
 30
0.0
 10
92.01819005381849
 20
247.7552798565371
 30
0.0
 10
92.23536917955332
 20
248.0746032337216
 30
0.0
 10
92.40468815166625
 20
248.2711109083906
 30
0.0
 10
92.49033749822445
 20
248.3705135548811
 30
0.0
  0
SPLINE
  5
95
330
1F
100
AcDbEntity
  8
0
  6
Continuous
 62
     7
370
    25
100
AcDbSpline
210
0.0
220
0.0
230
1.0
 70
     8
 71
     3
 72
    18
 73
    14
 74
     0
 42
0.00000001
 43
0.00000001
 40
0.0
 40
0.0
 40
0.0
 40
0.0
 40
0.064238301795458
 40
0.1273200093086273
 40
0.1897041736196448
 40
0.2509855194226685
 40
0.3121465984186369
 40
0.3729013964504483
 40
0.4331069794810614
 40
0.4940487834895415
 40
0.5542877106403252
 40
0.6156045446747327
 40
0.6212253693815362
 40
0.6212253693815362
 40
0.6212253693815362
 40
0.6212253693815362
 10
92.49033749822445
 20
248.3705135548811
 30
0.0
 10
92.54019662518081
 20
248.4244089714511
 30
0.0
 10
92.63901717819634
 20
248.5312294313262
 30
0.0
 10
92.79717334357201
 20
248.6796757284191
 30
0.0
 10
92.9592010573399
 20
248.8186575664341
 30
0.0
 10
93.12739378764006
 20
248.9465250537188
 30
0.0
 10
93.29921132688965
 20
249.0662480159424
 30
0.0
 10
93.47739159044202
 20
249.1740530757266
 30
0.0
 10
93.66126056572102
 20
249.2711100485417
 30
0.0
 10
93.84881850134994
 20
249.3596133749721
 30
0.0
 10
94.04329254867996
 20
249.4351817192875
 30
0.0
 10
94.18084831879975
 20
249.4822143369907
 30
0.0
 10
94.25402346666685
 20
249.5044785489125
 30
0.0
 10
94.26017332933203
 20
249.5063308625734
 30
0.0
  0
LINE
  5
96
330
1F
100
AcDbEntity
  8
0
  6
Continuous
 62
     7
370
    25
100
AcDbLine
 10
94.2601733293
 20
249.5063308626
 30
0.0
 11
89.3647365367
 21
249.5063308626
 31
0.0
  0
LINE
  5
97
330
1F
100
AcDbEntity
  8
0
  6
Continuous
 62
     7
370
    25
100
AcDbLine
 10
89.3647365367
 20
249.5063308626
 30
0.0
 11
88.5458262803
 21
243.6729975292
 31
0.0
  0
LINE
  5
98
330
1F
100
AcDbEntity
  8
0
  6
Continuous
 62
     7
370
    25
100
AcDbLine
 10
88.5458262803
 20
243.6729975292
 30
0.0
 11
90.7024769213
 21
243.6729975292
 31
0.0
  0
LINE
  5
99
330
1F
100
AcDbEntity
  8
0
  6
Continuous
 62
     7
370
    25
100
AcDbLine
 10
90.7024769213
 20
243.6729975292
 30
0.0
 11
90.5510346136
 21
242.5063308626
 31
0.0
  0
LINE
  5
9A
330
1F
100
AcDbEntity
  8
0
  6
Continuous
 62
     7
370
    25
100
AcDbLine
 10
90.5510346136
 20
242.5063308626
 30
0.0
 11
93.483648908
 21
242.5063308626
 31
0.0
  0
SPLINE
  5
9B
330
1F
100
AcDbEntity
  8
0
  6
Continuous
 62
     7
370
    25
100
AcDbSpline
210
0.0
220
0.0
230
1.0
 70
     8
 71
     3
 72
    20
 73
    16
 74
     0
 42
0.00000001
 43
0.00000001
 40
0.239729617899508
 40
0.239729617899508
 40
0.239729617899508
 40
0.239729617899508
 40
0.264423484029113
 40
0.3253024583348683
 40
0.3854254949959899
 40
0.4451018719544336
 40
0.5051902942418716
 40
0.5652398274888883
 40
0.6244162360769263
 40
0.6835006690302599
 40
0.743140948380449
 40
0.8039755393212058
 40
0.8667780794679776
 40
0.9318593990283653
 40
1.0
 40
1.0
 40
1.0
 40
1.0
 10
93.4836489080383
 20
242.5063308625733
 30
0.0
 10
93.44300124212006
 20
242.5195384114134
 30
0.0
 10
93.30305356302597
 20
242.5681268309269
 30
0.0
 10
93.07094455131187
 20
242.667563851064
 30
0.0
 10
92.79801878653478
 20
242.8210668590245
 30
0.0
 10
92.54351223241054
 20
243.0012988577353
 30
0.0
 10
92.31169136219042
 20
243.2095373562188
 30
0.0
 10
92.10089529848764
 20
243.4379554507843
 30
0.0
 10
91.91988276258331
 20
243.6884524472424
 30
0.0
 10
91.76356776672752
 20
243.954265622594
 30
0.0
 10
91.63955410346611
 20
244.2397504935742
 30
0.0
 10
91.54032118108759
 20
244.54140376295
 30
0.0
 10
91.47118417987691
 20
244.8609606890333
 30
0.0
 10
91.42794875375223
 20
245.1979184344102
 30
0.0
 10
91.42297144340236
 20
245.4284713314297
 30
0.0
 10
91.4204256392501
 20
245.5463949651375
 30
0.0
  0
LINE
  5
9C
330
1F
100
AcDbEntity
  8
0
  6
Continuous
 62
     7
370
    25
100
AcDbLine
 10
101.4268358957
 20
246.90376676
 30
0.0
 11
100.39338237
 21
242.5063308626
 31
0.0
  0
LINE
  5
9D
330
1F
100
AcDbEntity
  8
0
  6
Continuous
 62
     7
370
    25
100
AcDbLine
 10
100.39338237
 20
242.5063308626
 30
0.0
 11
102.4504737162
 21
242.5063308626
 31
0.0
  0
LINE
  5
9E
330
1F
100
AcDbEntity
  8
0
  6
Continuous
 62
     7
370
    25
100
AcDbLine
 10
102.4504737162
 20
242.5063308626
 30
0.0
 11
101.4268358957
 21
246.90376676
 31
0.0
  0
LINE
  5
9F
330
1F
100
AcDbEntity
  8
0
  6
Continuous
 62
     7
370
    25
100
AcDbLine
 10
105.5999128187
 20
246.6934302215
 30
0.0
 11
103.5442237162
 21
242.5063308626
 31
0.0
  0
LINE
  5
A0
330
1F
100
AcDbEntity
  8
0
  6
Continuous
 62
     7
370
    25
100
AcDbLine
 10
103.5442237162
 20
242.5063308626
 30
0.0
 11
105.6896564085
 21
242.5063308626
 31
0.0
  0
LINE
  5
A1
330
1F
100
AcDbEntity
  8
0
  6
Continuous
 62
     7
370
    25
100
AcDbLine
 10
105.6896564085
 20
242.5063308626
 30
0.0
 11
105.5999128187
 21
246.6934302215
 31
0.0
  0
LINE
  5
A2
330
1F
100
AcDbEntity
  8
0
  6
Continuous
 62
     7
370
    25
100
AcDbLine
 10
106.9460666649
 20
242.5063308626
 30
0.0
 11
108.292220511
 21
242.5063308626
 31
0.0
  0
LINE
  5
A3
330
1F
100
AcDbEntity
  8
0
  6
Continuous
 62
     7
370
    25
100
AcDbLine
 10
108.292220511
 20
242.5063308626
 30
0.0
 11
109.2737910239
 21
249.5063308626
 31
0.0
  0
LINE
  5
A4
330
1F
100
AcDbEntity
  8
0
  6
Continuous
 62
     7
370
    25
100
AcDbLine
 10
109.2737910239
 20
249.5063308626
 30
0.0
 11
106.8563230751
 21
249.5063308626
 31
0.0
  0
LINE
  5
A5
330
1F
100
AcDbEntity
  8
0
  6
Continuous
 62
     7
370
    25
100
AcDbLine
 10
106.8563230751
 20
249.5063308626
 30
0.0
 11
106.9460666649
 21
242.5063308626
 31
0.0
  0
LINE
  5
A6
330
1F
100
AcDbEntity
  8
0
  6
Continuous
 62
     7
370
    25
100
AcDbLine
 10
103.2217076905
 20
244.6293276574
 30
0.0
 11
105.6167397418
 21
249.5063308626
 31
0.0
  0
LINE
  5
A7
330
1F
100
AcDbEntity
  8
0
  6
Continuous
 62
     7
370
    25
100
AcDbLine
 10
105.6167397418
 20
249.5063308626
 30
0.0
 11
102.0844881393
 21
249.5063308626
 31
0.0
  0
LINE
  5
A8
330
1F
100
AcDbEntity
  8
0
  6
Continuous
 62
     7
370
    25
100
AcDbLine
 10
102.0844881393
 20
249.5063308626
 30
0.0
 11
103.2217076905
 21
244.6293276574
 31
0.0
  0
SPLINE
  5
A9
330
1F
100
AcDbEntity
  8
0
  6
Continuous
 62
     7
370
    25
100
AcDbSpline
210
0.0
220
0.0
230
1.0
 70
     8
 71
     3
 72
    27
 73
    23
 74
     0
 42
0.00000001
 43
0.00000001
 40
0.0
 40
0.0
 40
0.0
 40
0.0
 40
0.04188799435379
 40
0.0833119746699245
 40
0.1244329539022863
 40
0.1656331425791666
 40
0.2067286292095885
 40
0.2482548009980927
 40
0.2904601562565907
 40
0.3330390661313621
 40
0.3755676281952419
 40
0.4170635056946251
 40
0.4581839185964205
 40
0.498805193121123
 40
0.5389634745241144
 40
0.5791420474049104
 40
0.619258554065167
 40
0.6599354000341533
 40
0.7007653904355616
 40
0.7416569336212655
 40
0.7828141418008114
 40
0.7954655404790196
 40
0.7954655404790196
 40
0.7954655404790196
 40
0.7954655404790196
 10
121.1255538443783
 20
246.3989590677016
 30
0.0
 10
121.1240779068117
 20
246.3082126344958
 30
0.0
 10
121.1211423813691
 20
246.1277250112218
 30
0.0
 10
121.0932094720522
 20
245.8593581731915
 30
0.0
 10
121.0496937744504
 20
245.5947998715174
 30
0.0
 10
120.9901104318586
 20
245.3339737494587
 30
0.0
 10
120.9103522107314
 20
245.0777163595771
 30
0.0
 10
120.8151464142262
 20
244.8245094021004
 30
0.0
 10
120.7015694723463
 20
244.5753888500198
 30
0.0
 10
120.5711324720414
 20
244.3322842879294
 30
0.0
 10
120.4282417257821
 20
244.0980592915642
 30
0.0
 10
120.271624723651
 20
243.8765821888395
 30
0.0
 10
120.1033703595691
 20
243.6691674086117
 30
0.0
 10
119.9241243757637
 20
243.474998375551
 30
0.0
 10
119.7319512728309
 20
243.2966745061822
 30
0.0
 10
119.5306071519104
 20
243.1304600585331
 30
0.0
 10
119.3157302508398
 20
242.9801331263547
 30
0.0
 10
119.0907317390657
 20
242.8428218553703
 30
0.0
 10
118.8551413715324
 20
242.7207887279082
 30
0.0
 10
118.6105510886522
 20
242.6153145010758
 30
0.0
 10
118.4167016032475
 20
242.5478185405899
 30
0.0
 10
118.3051449623859
 20
242.5140268470406
 30
0.0
 10
118.2788432422615
 20
242.5063308625734
 30
0.0
  0
LINE
  5
AA
330
1F
100
AcDbEntity
  8
0
  6
Continuous
 62
     7
370
    25
100
AcDbLine
 10
118.2788432423
 20
242.5063308626
 30
0.0
 11
121.7537589726
 21
242.5063308626
 31
0.0
  0
LINE
  5
AB
330
1F
100
AcDbEntity
  8
0
  6
Continuous
 62
     7
370
    25
100
AcDbLine
 10
121.7537589726
 20
242.5063308626
 30
0.0
 11
122.7353294854
 21
249.5063308626
 31
0.0
  0
LINE
  5
AC
330
1F
100
AcDbEntity
  8
0
  6
Continuous
 62
     7
370
    25
100
AcDbLine
 10
122.7353294854
 20
249.5063308626
 30
0.0
 11
118.9711169855
 21
249.5063308547
 31
0.0
  0
SPLINE
  5
AD
330
1F
100
AcDbEntity
  8
0
  6
Continuous
 62
     7
370
    25
100
AcDbSpline
210
0.0
220
0.0
230
1.0
 70
     8
 71
     3
 72
    20
 73
    16
 74
     0
 42
0.00000001
 43
0.00000001
 40
0.2274363761353509
 40
0.2274363761353509
 40
0.2274363761353509
 40
0.2274363761353509
 40
0.2571630509245212
 40
0.317897004249324
 40
0.3785802245124626
 40
0.439872975788455
 40
0.5020382986730878
 40
0.564166740499703
 40
0.6251331697001136
 40
0.6854903325724082
 40
0.7456043237748703
 40
0.8067109861278065
 40
0.8690368324300035
 40
0.9333061686937952
 40
1.0
 40
1.0
 40
1.0
 40
1.0
 10
118.971116985528
 20
249.5063308547155
 30
0.0
 10
119.0203363646395
 20
249.4897397479401
 30
0.0
 10
119.1689098992202
 20
249.4356255507708
 30
0.0
 10
119.4103086639303
 20
249.3277462001657
 30
0.0
 10
119.6865808426411
 20
249.1668261233418
 30
0.0
 10
119.9466337778782
 20
248.9766992055221
 30
0.0
 10
120.1883500325702
 20
248.7599416069901
 30
0.0
 10
120.4072989437078
 20
248.5211136719838
 30
0.0
 10
120.6014605499717
 20
248.265493248658
 30
0.0
 10
120.7627096616831
 20
247.9919176259946
 30
0.0
 10
120.895502723973
 20
247.703433149936
 30
0.0
 10
121.0001827975938
 20
247.3997243884047
 30
0.0
 10
121.0715896636375
 20
247.0793318591068
 30
0.0
 10
121.1187238646351
 20
246.7443785063597
 30
0.0
 10
121.1232492585584
 20
246.5155112055097
 30
0.0
 10
121.1255538443783
 20
246.3989590677016
 30
0.0
  0
SPLINE
  5
AE
330
1F
100
AcDbEntity
  8
0
  6
Continuous
 62
     7
370
    25
100
AcDbSpline
210
0.0
220
0.0
230
1.0
 70
     8
 71
     3
 72
    15
 73
    11
 74
     0
 42
0.00000001
 43
0.00000001
 40
0.0
 40
0.0
 40
0.0
 40
0.0
 40
0.1680260073790252
 40
0.3235908276373208
 40
0.4667911579510109
 40
0.5977664969191535
 40
0.7158102584736246
 40
0.8213619850747848
 40
0.9163975789037627
 40
1.0
 40
1.0
 40
1.0
 40
1.0
 10
110.4713070495065
 20
249.5063308625734
 30
0.0
 10
110.558725509811
 20
249.5059748290928
 30
0.0
 10
110.7270792805276
 20
249.5052891663763
 30
0.0
 10
110.9697438263194
 20
249.4950101474849
 30
0.0
 10
111.1928457310711
 20
249.4800973383451
 30
0.0
 10
111.3958342596833
 20
249.4592124162122
 30
0.0
 10
111.5786688194586
 20
249.4337877725938
 30
0.0
 10
111.7408140112913
 20
249.3992710010355
 30
0.0
 10
111.8843121614132
 20
249.3624683740013
 30
0.0
 10
111.9705917470301
 20
249.3276935759946
 30
0.0
 10
112.010970511045
 20
249.311419003599
 30
0.0
  0
SPLINE
  5
AF
330
1F
100
AcDbEntity
  8
0
  6
Continuous
 62
     7
370
    25
100
AcDbSpline
210
0.0
220
0.0
230
1.0
 70
     8
 71
     3
 72
    23
 73
    19
 74
     0
 42
0.00000001
 43
0.00000001
 40
0.0
 40
0.0
 40
0.0
 40
0.0
 40
0.0688219461505603
 40
0.1356528613012672
 40
0.1999287773071067
 40
0.2630237007681145
 40
0.3247002760690896
 40
0.3852878285515217
 40
0.4456279914262922
 40
0.5056179879107703
 40
0.5656220302855101
 40
0.6254256072864588
 40
0.6850951665494598
 40
0.7452394874145915
 40
0.806642186694185
 40
0.8698171968260514
 40
0.9337612070621022
 40
1.0
 40
1.0
 40
1.0
 40
1.0
 10
112.010970511045
 20
249.311419003599
 30
0.0
 10
112.0561581879104
 20
249.2910297750094
 30
0.0
 10
112.1452262542064
 20
249.2508411817974
 30
0.0
 10
112.2710709189571
 20
249.1805402572183
 30
0.0
 10
112.3882295262793
 20
249.1040671150154
 30
0.0
 10
112.4978026700468
 20
249.0231113570288
 30
0.0
 10
112.598988610322
 20
248.9358957136076
 30
0.0
 10
112.6923760308849
 20
248.8431221931388
 30
0.0
 10
112.7762953872843
 20
248.7432842048575
 30
0.0
 10
112.8524075021938
 20
248.6379104526781
 30
0.0
 10
112.9193777316028
 20
248.5269822404684
 30
0.0
 10
112.9788811177377
 20
248.4120952835505
 30
0.0
 10
113.0275754491347
 20
248.2921331169288
 30
0.0
 10
113.0690691820924
 20
248.1682838440548
 30
0.0
 10
113.0994414395656
 20
248.0386040499284
 30
0.0
 10
113.1214638989014
 20
247.9046110900402
 30
0.0
 10
113.136483142287
 20
247.7660170054083
 30
0.0
 10
113.1377365872416
 20
247.6722366792736
 30
0.0
 10
113.1383743571988
 20
247.6245199651375
 30
0.0
  0
SPLINE
  5
B0
330
1F
100
AcDbEntity
  8
0
  6
Continuous
 62
     7
370
    25
100
AcDbSpline
210
0.0
220
0.0
230
1.0
 70
     8
 71
     3
 72
    31
 73
    27
 74
     0
 42
0.00000001
 43
0.00000001
 40
0.0
 40
0.0
 40
0.0
 40
0.0
 40
0.0360999853256895
 40
0.071709460892762
 40
0.1063979220553825
 40
0.141008525731178
 40
0.1756416062598736
 40
0.2102821758319112
 40
0.2450005356909653
 40
0.2801362824254032
 40
0.3152602148532754
 40
0.3497807647675876
 40
0.383949355540927
 40
0.4177085805158727
 40
0.4519817762220631
 40
0.4862004353375943
 40
0.520648772743823
 40
0.5559715423143817
 40
0.5935653834750426
 40
0.6363098156687343
 40
0.6836904305041307
 40
0.7364909210432368
 40
0.7941883497904118
 40
0.8575076904919874
 40
0.925888130868891
 40
1.0
 40
1.0
 40
1.0
 40
1.0
 10
113.1383743571988
 20
247.6245199651375
 30
0.0
 10
113.1371754789849
 20
247.5721362893701
 30
0.0
 10
113.1347940123549
 20
247.4680807027826
 30
0.0
 10
113.119479145478
 20
247.3142736298284
 30
0.0
 10
113.0927125666449
 20
247.1642460858834
 30
0.0
 10
113.0542560827401
 20
247.0183043363031
 30
0.0
 10
113.0072488061581
 20
246.8749209180662
 30
0.0
 10
112.9476343382685
 20
246.7361373228322
 30
0.0
 10
112.879203757485
 20
246.6006609440911
 30
0.0
 10
112.7987755590332
 20
246.4711423781475
 30
0.0
 10
112.7117165882558
 20
246.3463280135689
 30
0.0
 10
112.6141655193717
 20
246.2312618149196
 30
0.0
 10
112.5102095165144
 20
246.1249148733025
 30
0.0
 10
112.4003967924628
 20
246.0249591558482
 30
0.0
 10
112.2810263358784
 20
245.9365680196126
 30
0.0
 10
112.156281343259
 20
245.8541839713243
 30
0.0
 10
112.0232021268178
 20
245.7826871561987
 30
0.0
 10
111.8811925206691
 20
245.7182628757346
 30
0.0
 10
111.7225990340794
 20
245.6627157001966
 30
0.0
 10
111.5435374227108
 20
245.614435705814
 30
0.0
 10
111.3403010289997
 20
245.5725414491689
 30
0.0
 10
111.113697688911
 20
245.5383256751585
 30
0.0
 10
110.8629743635139
 20
245.5102939483007
 30
0.0
 10
110.5888327965428
 20
245.4903561446779
 30
0.0
 10
110.2905826275621
 20
245.4742241768985
 30
0.0
 10
110.0838427970789
 20
245.4700436589794
 30
0.0
 10
109.976315062327
 20
245.4678693241119
 30
0.0
  0
LINE
  5
B1
330
1F
100
AcDbEntity
  8
0
  6
Continuous
 62
     7
370
    25
100
AcDbLine
 10
109.9763150623
 20
245.4678693241
 30
0.0
 11
109.5598487162
 21
242.5063308626
 31
0.0
  0
LINE
  5
B2
330
1F
100
AcDbEntity
  8
0
  6
Continuous
 62
     7
370
    25
100
AcDbLine
 10
109.5598487162
 20
242.5063308626
 30
0.0
 11
115.7400591644
 21
242.5063308626
 31
0.0
  0
SPLINE
  5
B3
330
1F
100
AcDbEntity
  8
0
  6
Continuous
 62
     7
370
    25
100
AcDbSpline
210
0.0
220
0.0
230
1.0
 70
     8
 71
     3
 72
    20
 73
    16
 74
     0
 42
0.00000001
 43
0.00000001
 40
0.239729617899506
 40
0.239729617899506
 40
0.239729617899506
 40
0.239729617899506
 40
0.2644234840291124
 40
0.3253024583348683
 40
0.3854254949959904
 40
0.4451018719544341
 40
0.5051902942418721
 40
0.5652398274888883
 40
0.6244162360769268
 40
0.6835006690302595
 40
0.7431409483804492
 40
0.8039755393212058
 40
0.8667780794679777
 40
0.9318593990283653
 40
1.0
 40
1.0
 40
1.0
 40
1.0
 10
115.7400591644486
 20
242.5063308625733
 30
0.0
 10
115.6994114985303
 20
242.5195384114134
 30
0.0
 10
115.5594638194362
 20
242.5681268309269
 30
0.0
 10
115.3273548077221
 20
242.667563851064
 30
0.0
 10
115.054429042945
 20
242.8210668590245
 30
0.0
 10
114.7999224888208
 20
243.0012988577353
 30
0.0
 10
114.5681016186007
 20
243.2095373562188
 30
0.0
 10
114.3573055548979
 20
243.4379554507843
 30
0.0
 10
114.1762930189936
 20
243.6884524472424
 30
0.0
 10
114.0199780231378
 20
243.954265622594
 30
0.0
 10
113.8959643598764
 20
244.2397504935741
 30
0.0
 10
113.7967314374979
 20
244.54140376295
 30
0.0
 10
113.7275944362872
 20
244.8609606890333
 30
0.0
 10
113.6843590101625
 20
245.1979184344102
 30
0.0
 10
113.6793816998126
 20
245.4284713314297
 30
0.0
 10
113.6768358956604
 20
245.5463949651375
 30
0.0
  0
SPLINE
  5
B4
330
1F
100
AcDbEntity
  8
0
  6
Continuous
 62
     7
370
    25
100
AcDbSpline
210
0.0
220
0.0
230
1.0
 70
     8
 71
     3
 72
    15
 73
    11
 74
     0
 42
0.00000001
 43
0.00000001
 40
0.0
 40
0.0
 40
0.0
 40
0.0
 40
0.1307175632370421
 40
0.2573898700305134
 40
0.3818346537331833
 40
0.5044481655778543
 40
0.6261019029577143
 40
0.748507262256181
 40
0.8727833722169696
 40
1.0
 40
1.0
 40
1.0
 40
1.0
 10
113.6768358956604
 20
245.5463949651375
 30
0.0
 10
113.679894498637
 20
245.6811872179076
 30
0.0
 10
113.6859170514076
 20
245.946600369457
 30
0.0
 10
113.7388586177969
 20
246.3372855644797
 30
0.0
 10
113.8197812232633
 20
246.7144024517276
 30
0.0
 10
113.939016846726
 20
247.0759472503019
 30
0.0
 10
114.0893895334913
 20
247.4232918781378
 30
0.0
 10
114.2746003102288
 20
247.7552798565371
 30
0.0
 10
114.4917794359636
 20
248.0746032337216
 30
0.0
 10
114.6610984080765
 20
248.2711109083906
 30
0.0
 10
114.7467477546347
 20
248.3705135548811
 30
0.0
  0
SPLINE
  5
B5
330
1F
100
AcDbEntity
  8
0
  6
Continuous
 62
     7
370
    25
100
AcDbSpline
210
0.0
220
0.0
230
1.0
 70
     8
 71
     3
 72
    18
 73
    14
 74
     0
 42
0.00000001
 43
0.00000001
 40
0.0
 40
0.0
 40
0.0
 40
0.0
 40
0.0642383017954573
 40
0.1273200093086266
 40
0.1897041736196441
 40
0.2509855194226694
 40
0.312146598418637
 40
0.3729013964504493
 40
0.4331069794810624
 40
0.4940487834895416
 40
0.5542877106403253
 40
0.6156045446747337
 40
0.6212253731444062
 40
0.6212253731444062
 40
0.6212253731444062
 40
0.6212253731444062
 10
114.7467477546347
 20
248.3705135548811
 30
0.0
 10
114.7966068815911
 20
248.4244089714511
 30
0.0
 10
114.8954274346066
 20
248.5312294313262
 30
0.0
 10
115.0535835999823
 20
248.6796757284191
 30
0.0
 10
115.2156113137502
 20
248.8186575664341
 30
0.0
 10
115.3838040440503
 20
248.9465250537188
 30
0.0
 10
115.5556215832999
 20
249.0662480159424
 30
0.0
 10
115.7338018468523
 20
249.1740530757266
 30
0.0
 10
115.9176708221313
 20
249.2711100485417
 30
0.0
 10
116.1052287577602
 20
249.3596133749721
 30
0.0
 10
116.2997028050902
 20
249.4351817192875
 30
0.0
 10
116.43725857928
 20
249.4822143383823
 30
0.0
 10
116.5104337313041
 20
249.5044785514156
 30
0.0
 10
116.5165835980934
 20
249.5063308662935
 30
0.0
  0
LINE
  5
B6
330
1F
100
AcDbEntity
  8
0
  6
Continuous
 62
     7
370
    25
100
AcDbLine
 10
116.5165835992
 20
249.5063308626
 30
0.0
 11
110.4713070495
 21
249.5063308626
 31
0.0
  0
LINE
  5
B7
330
1F
100
AcDbEntity
  8
0
  6
Continuous
 62
     7
370
    25
100
AcDbLine
 10
123.4771163444
 20
245.7525247728
 30
0.0
 11
123.0213871777
 21
242.5063308626
 31
0.0
  0
LINE
  5
B8
330
1F
100
AcDbEntity
  8
0
  6
Continuous
 62
     7
370
    25
100
AcDbLine
 10
123.0213871777
 20
242.5063308626
 30
0.0
 11
125.4907381393
 21
242.5063308626
 31
0.0
  0
LINE
  5
B9
330
1F
100
AcDbEntity
  8
0
  6
Continuous
 62
     7
370
    25
100
AcDbLine
 10
125.4907381393
 20
242.5063308626
 30
0.0
 11
123.4771163444
 21
245.7525247728
 31
0.0
  0
LINE
  5
BA
330
1F
100
AcDbEntity
  8
0
  6
Continuous
 62
     7
370
    25
100
AcDbLine
 10
123.6580057675
 20
247.0397843882
 30
0.0
 11
126.0151772418
 21
249.5063308626
 31
0.0
  0
LINE
  5
BB
330
1F
100
AcDbEntity
  8
0
  6
Continuous
 62
     7
370
    25
100
AcDbLine
 10
126.0151772418
 20
249.5063308626
 30
0.0
 11
124.0029576905
 21
249.5063308626
 31
0.0
  0
LINE
  5
BC
330
1F
100
AcDbEntity
  8
0
  6
Continuous
 62
     7
370
    25
100
AcDbLine
 10
124.0029576905
 20
249.5063308626
 30
0.0
 11
123.6580057675
 21
247.0397843882
 31
0.0
  0
LINE
  5
BD
330
1F
100
AcDbEntity
  8
0
  6
Continuous
 62
     7
370
    25
100
AcDbLine
 10
135.3947846136
 20
242.5063308626
 30
0.0
 11
135.3947846136
 21
249.5063308626
 31
0.0
  0
LINE
  5
BE
330
1F
100
AcDbEntity
  8
0
  6
Continuous
 62
     7
370
    25
100
AcDbLine
 10
135.3947846136
 20
249.5063308626
 30
0.0
 11
135.3050410239
 21
248.3396641959
 31
0.0
  0
LINE
  5
BF
330
1F
100
AcDbEntity
  8
0
  6
Continuous
 62
     7
370
    25
100
AcDbLine
 10
135.3050410239
 20
248.3396641959
 30
0.0
 11
133.1399769213
 21
248.3396641959
 31
0.0
  0
LINE
  5
C0
330
1F
100
AcDbEntity
  8
0
  6
Continuous
 62
     7
370
    25
100
AcDbLine
 10
133.1399769213
 20
248.3396641959
 30
0.0
 11
132.6800410239
 21
246.9486385549
 31
0.0
  0
SPLINE
  5
C1
330
1F
100
AcDbEntity
  8
0
  6
Continuous
 62
     7
370
    25
100
AcDbSpline
210
0.0
220
0.0
230
1.0
 70
     8
 71
     3
 72
    11
 73
     7
 74
     0
 42
0.00000001
 43
0.00000001
 40
0.0
 40
0.0
 40
0.0
 40
0.0
 40
0.2495281096564353
 40
0.4992048364253128
 40
0.747727455989248
 40
1.0
 40
1.0
 40
1.0
 40
1.0
 10
132.6800410238655
 20
246.9486385548811
 30
0.0
 10
132.7301034382748
 20
246.9694768612825
 30
0.0
 10
132.8302580839004
 20
247.0111658852277
 30
0.0
 10
132.9877974211348
 20
247.0519035203619
 30
0.0
 10
133.148878022779
 20
247.0785983972162
 30
0.0
 10
133.257656420758
 20
247.0816943645964
 30
0.0
 10
133.3124528828399
 20
247.0832539394965
 30
0.0
  0
SPLINE
  5
C2
330
1F
100
AcDbEntity
  8
0
  6
Continuous
 62
     7
370
    25
100
AcDbSpline
210
0.0
220
0.0
230
1.0
 70
     8
 71
     3
 72
    23
 73
    19
 74
     0
 42
0.00000001
 43
0.00000001
 40
0.0
 40
0.0
 40
0.0
 40
0.0
 40
0.0637950178317204
 40
0.1247531091253922
 40
0.183952850848373
 40
0.2415903386578476
 40
0.2981781171152934
 40
0.354625907125673
 40
0.411396528529712
 40
0.4698155968115531
 40
0.5288739939435454
 40
0.5889797400265673
 40
0.6502059646755832
 40
0.7138593380349015
 40
0.7798185587022357
 40
0.8494481822264505
 40
0.9225413222845446
 40
1.0
 40
1.0
 40
1.0
 40
1.0
 10
133.3124528828399
 20
247.0832539394965
 30
0.0
 10
133.3756302344771
 20
247.0815977567908
 30
0.0
 10
133.4991754784622
 20
247.0783590408405
 30
0.0
 10
133.6800550510691
 20
247.05415836598
 30
0.0
 10
133.8517691896374
 20
247.0139529846778
 30
0.0
 10
134.0137043173241
 20
246.9558735518289
 30
0.0
 10
134.1665570902938
 20
246.8830077575793
 30
0.0
 10
134.3086504874824
 20
246.792413658784
 30
0.0
 10
134.4416844037685
 20
246.6862004520336
 30
0.0
 10
134.564583682717
 20
246.564646996566
 30
0.0
 10
134.6758927509642
 20
246.4281046318435
 30
0.0
 10
134.7728936071358
 20
246.277657150731
 30
0.0
 10
134.8543042200575
 20
246.1132645818749
 30
0.0
 10
134.9222577198298
 20
245.9365630367005
 30
0.0
 10
134.9714384534558
 20
245.7452153333927
 30
0.0
 10
135.0097475542275
 20
245.5420556375672
 30
0.0
 10
135.0323522430343
 20
245.3248827070464
 30
0.0
 10
135.034635514825
 20
245.1757881693671
 30
0.0
 10
135.0358102546347
 20
245.0990792600093
 30
0.0
  0
SPLINE
  5
C3
330
1F
100
AcDbEntity
  8
0
  6
Continuous
 62
     7
370
    25
100
AcDbSpline
210
0.0
220
0.0
230
1.0
 70
     8
 71
     3
 72
    20
 73
    16
 74
     0
 42
0.00000001
 43
0.00000001
 40
0.0
 40
0.0
 40
0.0
 40
0.0
 40
0.0733464882176558
 40
0.1436837271074851
 40
0.2111643664898914
 40
0.2762352245487053
 40
0.3400057228496727
 40
0.4023860585742793
 40
0.4643134272310194
 40
0.5267481932511557
 40
0.5881742837649196
 40
0.6475296834834472
 40
0.7055995091291074
 40
0.7631164422563058
 40
0.770009588323976
 40
0.770009588323976
 40
0.770009588323976
 40
0.770009588323976
 10
135.0358102546347
 20
245.0990792600093
 30
0.0
 10
135.0336034238671
 20
244.9980372122695
 30
0.0
 10
135.029280303872
 20
244.8000986556104
 30
0.0
 10
134.9969977584083
 20
244.5105610256941
 30
0.0
 10
134.9421275199576
 20
244.2362604762618
 30
0.0
 10
134.8671881022785
 20
243.9759381229649
 30
0.0
 10
134.7665008062328
 20
243.7320859151337
 30
0.0
 10
134.6476550345934
 20
243.5014525710853
 30
0.0
 10
134.5046772703036
 20
243.2869469936834
 30
0.0
 10
134.3412812880256
 20
243.089534541052
 30
0.0
 10
134.1632573394459
 20
242.9100126795705
 30
0.0
 10
133.9709276434918
 20
242.7553526161202
 30
0.0
 10
133.769713971087
 20
242.6220994005374
 30
0.0
 10
133.6191922640667
 20
242.5449419026923
 30
0.0
 10
133.5376062225813
 20
242.5100066998318
 30
0.0
 10
133.5288485486266
 20
242.5063308617998
 30
0.0
  0
LINE
  5
C4
330
1F
100
AcDbEntity
  8
0
  6
Continuous
 62
     7
370
    25
100
AcDbLine
 10
133.5288485486
 20
242.5063308618
 30
0.0
 11
135.3947846136
 21
242.5063308626
 31
0.0
  0
LINE
  5
C5
330
1F
100
AcDbEntity
  8
0
  6
Continuous
 62
     7
370
    25
100
AcDbLine
 10
130.369143588
 20
243.793590478
 30
0.0
 11
131.5316035239
 21
244.3124206062
 31
0.0
  0
SPLINE
  5
C6
330
1F
100
AcDbEntity
  8
0
  6
Continuous
 62
     7
370
    25
100
AcDbSpline
210
0.0
220
0.0
230
1.0
 70
     8
 71
     3
 72
    15
 73
    11
 74
     0
 42
0.00000001
 43
0.00000001
 40
0.0
 40
0.0
 40
0.0
 40
0.0
 40
0.175962301719069
 40
0.3301287619133206
 40
0.4641583537358858
 40
0.5805287440829393
 40
0.68679856314948
 40
0.7910228916523712
 40
0.8946371708816656
 40
1.0
 40
1.0
 40
1.0
 40
1.0
 10
131.5316035238655
 20
244.3124206061631
 30
0.0
 10
131.5806514540733
 20
244.2397629888282
 30
0.0
 10
131.6726719170686
 20
244.1034476018389
 30
0.0
 10
131.8163853596906
 20
243.9218224121866
 30
0.0
 10
131.9585945322181
 20
243.7784535887034
 30
0.0
 10
132.0983821194672
 20
243.6677970511185
 30
0.0
 10
132.2414296332335
 20
243.5885678734592
 30
0.0
 10
132.3883700816875
 20
243.5334800499888
 30
0.0
 10
132.5416047098544
 20
243.5001654695307
 30
0.0
 10
132.6457578740812
 20
243.4957410629533
 30
0.0
 10
132.6982701905322
 20
243.4935103497529
 30
0.0
  0
SPLINE
  5
C7
330
1F
100
AcDbEntity
  8
0
  6
Continuous
 62
     7
370
    25
100
AcDbSpline
210
0.0
220
0.0
230
1.0
 70
     8
 71
     3
 72
    23
 73
    19
 74
     0
 42
0.00000001
 43
0.00000001
 40
0.0
 40
0.0
 40
0.0
 40
0.0
 40
0.0579422051132426
 40
0.114439195391078
 40
0.170084983954758
 40
0.2248803217216409
 40
0.2799126988262288
 40
0.3356455664682324
 40
0.3937988229590432
 40
0.454498941206824
 40
0.5163775699495246
 40
0.5794814752522673
 40
0.6431049950958836
 40
0.7090915741559629
 40
0.7770221527196626
 40
0.8480854088060825
 40
0.9220937992640277
 40
1.0
 40
1.0
 40
1.0
 40
1.0
 10
132.6982701905322
 20
243.4935103497529
 30
0.0
 10
132.7362122908994
 20
243.4944266294922
 30
0.0
 10
132.8111501264374
 20
243.4962363347996
 30
0.0
 10
132.9211083785093
 20
243.5155080193148
 30
0.0
 10
133.0264999467979
 20
243.5446520436925
 30
0.0
 10
133.1271798130514
 20
243.5853152803628
 30
0.0
 10
133.2213655548162
 20
243.639345028591
 30
0.0
 10
133.3108990773458
 20
243.7045375740064
 30
0.0
 10
133.3946670047483
 20
243.7824518076298
 30
0.0
 10
133.4746239049137
 20
243.869824763872
 30
0.0
 10
133.5456894872452
 20
243.9686029928296
 30
0.0
 10
133.6092706304717
 20
244.0745986902568
 30
0.0
 10
133.6609192996017
 20
244.1898625563072
 30
0.0
 10
133.7045073034927
 20
244.3116437123614
 30
0.0
 10
133.7383781069317
 20
244.4416243611607
 30
0.0
 10
133.7611918639735
 20
244.579173886848
 30
0.0
 10
133.7779778118248
 20
244.724271075505
 30
0.0
 10
133.7789178958951
 20
244.823719998567
 30
0.0
 10
133.7793999982245
 20
244.8747202856503
 30
0.0
  0
SPLINE
  5
C8
330
1F
100
AcDbEntity
  8
0
  6
Continuous
 62
     7
370
    25
100
AcDbSpline
210
0.0
220
0.0
230
1.0
 70
     8
 71
     3
 72
    15
 73
    11
 74
     0
 42
0.00000001
 43
0.00000001
 40
0.0
 40
0.0
 40
0.0
 40
0.0
 40
0.1549976686760348
 40
0.2971518275750441
 40
0.4303013736232323
 40
0.5576777467865405
 40
0.6774123771125639
 40
0.7872473687593475
 40
0.8922355827729568
 40
1.0
 40
1.0
 40
1.0
 40
1.0
 10
133.7793999982245
 20
244.8747202856503
 30
0.0
 10
133.776943894589
 20
244.9492507681778
 30
0.0
 10
133.7722352064504
 20
245.092135943692
 30
0.0
 10
133.7300012533862
 20
245.2956677879961
 30
0.0
 10
133.658620231758
 20
245.4766489927156
 30
0.0
 10
133.5587975732567
 20
245.6310084897163
 30
0.0
 10
133.4403321707426
 20
245.7564362856904
 30
0.0
 10
133.3078636648299
 20
245.8494302310983
 30
0.0
 10
133.1611356224289
 20
245.9063272405529
 30
0.0
 10
133.0586667654225
 20
245.9131376391696
 30
0.0
 10
133.0067637802757
 20
245.9165872728298
 30
0.0
  0
SPLINE
  5
C9
330
1F
100
AcDbEntity
  8
0
  6
Continuous
 62
     7
370
    25
100
AcDbSpline
210
0.0
220
0.0
230
1.0
 70
     8
 71
     3
 72
    15
 73
    11
 74
     0
 42
0.00000001
 43
0.00000001
 40
0.0
 40
0.0
 40
0.0
 40
0.0
 40
0.1222757932093441
 40
0.2415941881703159
 40
0.359450962697859
 40
0.4765870316740021
 40
0.5976229600290461
 40
0.7230502949148674
 40
0.8569769577036996
 40
1.0
 40
1.0
 40
1.0
 40
1.0
 10
133.0067637802757
 20
245.9165872728298
 30
0.0
 10
132.9716417552018
 20
245.9150964615104
 30
0.0
 10
132.902247176668
 20
245.912150896072
 30
0.0
 10
132.8001487811292
 20
245.8930225096976
 30
0.0
 10
132.7048246282657
 20
245.8564595037219
 30
0.0
 10
132.6129575910865
 20
245.810705012043
 30
0.0
 10
132.5290710016225
 20
245.7476202164564
 30
0.0
 10
132.4497520355426
 20
245.6722383131794
 30
0.0
 10
132.3748250475385
 20
245.5837049620427
 30
0.0
 10
132.3319766105355
 20
245.5165645667367
 30
0.0
 10
132.3098487161732
 20
245.4818917600093
 30
0.0
  0
LINE
  5
CA
330
1F
100
AcDbEntity
  8
0
  6
Continuous
 62
     7
370
    25
100
AcDbLine
 10
132.3098487162
 20
245.48189176
 30
0.0
 11
131.1768358957
 21
245.8184302215
 31
0.0
  0
LINE
  5
CB
330
1F
100
AcDbEntity
  8
0
  6
Continuous
 62
     7
370
    25
100
AcDbLine
 10
131.1768358957
 20
245.8184302215
 30
0.0
 11
132.1541996777
 21
249.5063308626
 31
0.0
  0
LINE
  5
CC
330
1F
100
AcDbEntity
  8
0
  6
Continuous
 62
     7
370
    25
100
AcDbLine
 10
132.1541996777
 20
249.5063308626
 30
0.0
 11
127.7217076905
 21
249.5063308626
 31
0.0
  0
LINE
  5
CD
330
1F
100
AcDbEntity
  8
0
  6
Continuous
 62
     7
370
    25
100
AcDbLine
 10
127.7217076905
 20
249.5063308626
 30
0.0
 11
124.6241516008
 21
246.2685504139
 31
0.0
  0
LINE
  5
CE
330
1F
100
AcDbEntity
  8
0
  6
Continuous
 62
     7
370
    25
100
AcDbLine
 10
124.6241516008
 20
246.2685504139
 30
0.0
 11
126.9560826905
 21
242.5063308626
 31
0.0
  0
LINE
  5
CF
330
1F
100
AcDbEntity
  8
0
  6
Continuous
 62
     7
370
    25
100
AcDbLine
 10
126.9560826905
 20
242.5063308626
 30
0.0
 11
131.6529174137
 21
242.5063308714
 31
0.0
  0
SPLINE
  5
D0
330
1F
100
AcDbEntity
  8
0
  6
Continuous
 62
     7
370
    25
100
AcDbSpline
210
0.0
220
0.0
230
1.0
 70
     8
 71
     3
 72
    18
 73
    14
 74
     0
 42
0.00000001
 43
0.00000001
 40
0.3431420415112373
 40
0.3431420415112373
 40
0.3431420415112373
 40
0.3431420415112373
 40
0.3666556308082068
 40
0.4260233427962231
 40
0.4857454182331578
 40
0.5462085489490169
 40
0.6067122453391589
 40
0.6683727820137737
 40
0.7311473579472975
 40
0.7953575299011336
 40
0.8615841619382101
 40
0.92954417498987
 40
1.0
 40
1.0
 40
1.0
 40
1.0
 10
131.6529174136518
 20
242.5063308713963
 30
0.0
 10
131.6324230815061
 20
242.5148556765852
 30
0.0
 10
131.5607117608955
 20
242.5461626636687
 30
0.0
 10
131.440880115869
 20
242.6075983871881
 30
0.0
 10
131.2941371195669
 20
242.6925296208768
 30
0.0
 10
131.1542824208928
 20
242.7904943780322
 30
0.0
 10
131.0219218404263
 20
242.9010894902437
 30
0.0
 10
130.8954839098459
 20
243.0215681837544
 30
0.0
 10
130.776043986759
 20
243.1538094543506
 30
0.0
 10
130.6639599165407
 20
243.2977459008409
 30
0.0
 10
130.5569617038682
 20
243.4515241249405
 30
0.0
 10
130.4588175801438
 20
243.6180476223911
 30
0.0
 10
130.3993920908419
 20
243.7343770043269
 30
0.0
 10
130.3691435879681
 20
243.793590477958
 30
0.0
  0
CIRCLE
  5
D1
330
1F
100
AcDbEntity
  8
0
  6
Continuous
 62
     7
370
    25
100
AcDbCircle
 10
105.9878655136
 20
253.0058295603
 30
0.0
 40
1.5
  0
ENDSEC
  0
SECTION
  2
OBJECTS
  0
DICTIONARY
  5
C
330
0
100
AcDbDictionary
281
     1
  3
ACAD_GROUP
350
D
  3
ACAD_LAYOUT
350
1A
  3
ACAD_MLINESTYLE
350
17
  3
ACAD_PLOTSETTINGS
350
19
  3
ACAD_PLOTSTYLENAME
350
E
  3
ACAD_SCALELIST
350
47
  3
DWGPROPS
350
D2
  0
DICTIONARY
  5
D
102
{ACAD_REACTORS
330
C
102
}
330
C
100
AcDbDictionary
281
     1
  0
DICTIONARY
  5
1A
102
{ACAD_REACTORS
330
C
102
}
330
C
100
AcDbDictionary
281
     1
  3
Layout1
350
1E
  3
Layout2
350
26
  3
Model
350
22
  0
DICTIONARY
  5
17
102
{ACAD_REACTORS
330
C
102
}
330
C
100
AcDbDictionary
281
     1
  3
Standard
350
18
  0
DICTIONARY
  5
19
102
{ACAD_REACTORS
330
C
102
}
330
C
100
AcDbDictionary
281
     1
  0
ACDBDICTIONARYWDFLT
  5
E
102
{ACAD_REACTORS
330
C
102
}
330
C
100
AcDbDictionary
281
     1
  3
Normal
350
F
100
AcDbDictionaryWithDefault
340
F
  0
DICTIONARY
  5
47
102
{ACAD_REACTORS
330
C
102
}
330
C
100
AcDbDictionary
281
     1
  3
A0
350
48
  3
A1
350
49
  3
A2
350
4A
  3
A3
350
4B
  3
A4
350
4C
  3
A5
350
4D
  3
A6
350
4E
  3
A7
350
4F
  3
A8
350
50
  3
A9
350
51
  3
B0
350
52
  3
B1
350
53
  3
B2
350
54
  3
B3
350
55
  3
B4
350
56
  3
B5
350
57
  3
B6
350
58
  0
XRECORD
  5
D2
102
{ACAD_REACTORS
330
C
102
}
330
C
100
AcDbXrecord
280
     1
  1
DWGPROPS COOKIE
  2

  3

  4

  6

  7

  8
Legion
  9

300
=
301
=
302
=
303
=
304
=
305
=
306
=
307
=
308
=
309
=
 40
0.0
 41
2461165.196856169
 42
2461165.196856285
  1

 90
        0
  0
LAYOUT
  5
1E
102
{ACAD_REACTORS
330
1A
102
}
330
1A
100
AcDbPlotSettings
  1

  2
none_device
  4

  6

 40
0.0
 41
0.0
 42
0.0
 43
0.0
 44
0.0
 45
0.0
 46
0.0
 47
0.0
 48
0.0
 49
0.0
140
0.0
141
0.0
142
1.0
143
1.0
 70
   688
 72
     1
 73
     0
 74
     5
  7

 75
    16
147
1.0
148
0.0
149
0.0
100
AcDbLayout
  1
Layout1
 70
     1
 71
     1
 10
0.0
 20
0.0
 11
420.0
 21
297.0
 12
0.0
 22
0.0
 32
0.0
 14
1.0000000000E+20
 24
1.0000000000E+20
 34
1.0000000000E+20
 15
-1.0000000000E+20
 25
-1.0000000000E+20
 35
-1.0000000000E+20
146
0.0
 13
0.0
 23
0.0
 33
0.0
 16
1.0
 26
0.0
 36
0.0
 17
0.0
 27
1.0
 37
0.0
 76
     0
330
1B
  0
LAYOUT
  5
26
102
{ACAD_REACTORS
330
1A
102
}
330
1A
100
AcDbPlotSettings
  1

  2
none_device
  4

  6

 40
0.0
 41
0.0
 42
0.0
 43
0.0
 44
0.0
 45
0.0
 46
0.0
 47
0.0
 48
0.0
 49
0.0
140
0.0
141
0.0
142
1.0
143
1.0
 70
   688
 72
     1
 73
     0
 74
     5
  7

 75
    16
147
1.0
148
0.0
149
0.0
100
AcDbLayout
  1
Layout2
 70
     1
 71
     2
 10
0.0
 20
0.0
 11
0.0
 21
0.0
 12
0.0
 22
0.0
 32
0.0
 14
0.0
 24
0.0
 34
0.0
 15
0.0
 25
0.0
 35
0.0
146
0.0
 13
0.0
 23
0.0
 33
0.0
 16
1.0
 26
0.0
 36
0.0
 17
0.0
 27
1.0
 37
0.0
 76
     0
330
23
  0
LAYOUT
  5
22
102
{ACAD_REACTORS
330
1A
102
}
330
1A
100
AcDbPlotSettings
  1

  2
none_device
  4
Letter_(8.50_x_11.00_Inches)
  6

 40
6.35
 41
6.35
 42
6.35000508
 43
6.35000508
 44
215.9
 45
279.4
 46
0.0
 47
0.0
 48
0.0
 49
0.0
140
0.0
141
0.0
142
1.0
143
1.0
 70
  1712
 72
     1
 73
     0
 74
     0
  7

 75
     0
147
1.0
148
0.0
149
0.0
100
AcDbLayout
  1
Model
 70
     1
 71
     0
 10
0.0
 20
0.0
 11
210.0
 21
297.0
 12
0.0
 22
0.0
 32
0.0
 14
0.0
 24
0.0
 34
0.0
 15
210.0
 25
297.0
 35
0.0
146
0.0
 13
0.0
 23
0.0
 33
0.0
 16
1.0
 26
0.0
 36
0.0
 17
0.0
 27
1.0
 37
0.0
 76
     0
330
1F
331
29
  0
MLINESTYLE
  5
18
102
{ACAD_REACTORS
330
17
102
}
330
17
100
AcDbMlineStyle
  2
Standard
 70
     0
  3

 62
   256
 51
90.0
 52
90.0
 71
     2
 49
0.5
 62
   256
  6
BYLAYER
 49
-0.5
 62
   256
  6
BYLAYER
  0
ACDBPLACEHOLDER
  5
F
102
{ACAD_REACTORS
330
E
102
}
330
E
  0
SCALE
  5
48
102
{ACAD_REACTORS
330
47
102
}
330
47
100
AcDbScale
 70
     0
300
1:1
140
1.0
141
1.0
290
     1
  0
SCALE
  5
49
102
{ACAD_REACTORS
330
47
102
}
330
47
100
AcDbScale
 70
     0
300
1:2
140
1.0
141
2.0
290
     0
  0
SCALE
  5
4A
102
{ACAD_REACTORS
330
47
102
}
330
47
100
AcDbScale
 70
     0
300
1:4
140
1.0
141
4.0
290
     0
  0
SCALE
  5
4B
102
{ACAD_REACTORS
330
47
102
}
330
47
100
AcDbScale
 70
     0
300
1:5
140
1.0
141
5.0
290
     0
  0
SCALE
  5
4C
102
{ACAD_REACTORS
330
47
102
}
330
47
100
AcDbScale
 70
     0
300
1:8
140
1.0
141
8.0
290
     0
  0
SCALE
  5
4D
102
{ACAD_REACTORS
330
47
102
}
330
47
100
AcDbScale
 70
     0
300
1:10
140
1.0
141
10.0
290
     0
  0
SCALE
  5
4E
102
{ACAD_REACTORS
330
47
102
}
330
47
100
AcDbScale
 70
     0
300
1:16
140
1.0
141
16.0
290
     0
  0
SCALE
  5
4F
102
{ACAD_REACTORS
330
47
102
}
330
47
100
AcDbScale
 70
     0
300
1:20
140
1.0
141
20.0
290
     0
  0
SCALE
  5
50
102
{ACAD_REACTORS
330
47
102
}
330
47
100
AcDbScale
 70
     0
300
1:30
140
1.0
141
30.0
290
     0
  0
SCALE
  5
51
102
{ACAD_REACTORS
330
47
102
}
330
47
100
AcDbScale
 70
     0
300
1:40
140
1.0
141
40.0
290
     0
  0
SCALE
  5
52
102
{ACAD_REACTORS
330
47
102
}
330
47
100
AcDbScale
 70
     0
300
1:50
140
1.0
141
50.0
290
     0
  0
SCALE
  5
53
102
{ACAD_REACTORS
330
47
102
}
330
47
100
AcDbScale
 70
     0
300
1:100
140
1.0
141
100.0
290
     0
  0
SCALE
  5
54
102
{ACAD_REACTORS
330
47
102
}
330
47
100
AcDbScale
 70
     0
300
2:1
140
2.0
141
1.0
290
     0
  0
SCALE
  5
55
102
{ACAD_REACTORS
330
47
102
}
330
47
100
AcDbScale
 70
     0
300
4:1
140
4.0
141
1.0
290
     0
  0
SCALE
  5
56
102
{ACAD_REACTORS
330
47
102
}
330
47
100
AcDbScale
 70
     0
300
8:1
140
8.0
141
1.0
290
     0
  0
SCALE
  5
57
102
{ACAD_REACTORS
330
47
102
}
330
47
100
AcDbScale
 70
     0
300
10:1
140
10.0
141
1.0
290
     0
  0
SCALE
  5
58
102
{ACAD_REACTORS
330
47
102
}
330
47
100
AcDbScale
 70
     0
300
100:1
140
100.0
141
1.0
290
     0
  0
ENDSEC
  0
EOF
